<svg xmlns="http://www.w3.org/2000/svg" xmlns:xlink="http://www.w3.org/1999/xlink" width="500" zoomAndPan="magnify" viewBox="0 0 375 374.999991" height="500" preserveAspectRatio="xMidYMid meet" version="1.0"><defs><clipPath id="d61b53ba22"><path d="M 135.851562 146.25 L 218 146.25 L 218 163 L 135.851562 163 Z M 135.851562 146.25 " clip-rule="nonzero"/></clipPath><clipPath id="4c3d140dbf"><path d="M 135.988281 179.003906 L 238.601562 179.003906 L 238.601562 195.957031 L 135.988281 195.957031 Z M 135.988281 179.003906 " clip-rule="nonzero"/></clipPath><clipPath id="4c18cf1c0b"><path d="M 135.988281 212.140625 L 199.953125 212.140625 L 199.953125 228.75 L 135.988281 228.75 Z M 135.988281 212.140625 " clip-rule="nonzero"/></clipPath><clipPath id="5910ff5c8f"><path d="M 25.109375 25.109375 L 358.859375 25.109375 L 358.859375 358.859375 L 25.109375 358.859375 Z M 25.109375 25.109375 " clip-rule="nonzero"/></clipPath></defs><g clip-path="url(#d61b53ba22)"><path fill="#ffffff" d="M 208.886719 162.753906 L 144.238281 162.753906 C 139.683594 162.753906 135.988281 159.058594 135.988281 154.5 C 135.988281 149.945312 139.683594 146.25 144.238281 146.25 L 208.886719 146.25 C 213.445312 146.25 217.140625 149.945312 217.140625 154.5 C 217.140625 159.058594 213.445312 162.753906 208.886719 162.753906 " fill-opacity="1" fill-rule="nonzero"/></g><g clip-path="url(#4c3d140dbf)"><path fill="#ffffff" d="M 230.429688 195.757812 L 144.238281 195.757812 C 139.683594 195.757812 135.988281 192.066406 135.988281 187.507812 C 135.988281 182.949219 139.683594 179.257812 144.238281 179.257812 L 230.429688 179.257812 C 234.988281 179.257812 238.683594 182.949219 238.683594 187.507812 C 238.683594 192.066406 234.988281 195.757812 230.429688 195.757812 " fill-opacity="1" fill-rule="nonzero"/></g><g clip-path="url(#4c18cf1c0b)"><path fill="#ffffff" d="M 191.488281 228.765625 L 144.238281 228.765625 C 139.683594 228.765625 135.988281 225.070312 135.988281 220.515625 C 135.988281 215.957031 139.683594 212.261719 144.238281 212.261719 L 191.488281 212.261719 C 196.046875 212.261719 199.742188 215.957031 199.742188 220.515625 C 199.742188 225.070312 196.046875 228.765625 191.488281 228.765625 " fill-opacity="1" fill-rule="nonzero"/></g><g clip-path="url(#5910ff5c8f)"><path fill="#ffffff" d="M 191.921875 25.109375 C 100.175781 25.109375 25.109375 100.175781 25.109375 191.921875 C 25.109375 283.667969 100.175781 358.730469 191.921875 358.730469 C 283.667969 358.730469 358.730469 283.667969 358.730469 191.921875 C 358.730469 100.175781 283.667969 25.109375 191.921875 25.109375 Z M 258.644531 208.601562 L 208.601562 208.601562 L 208.601562 258.644531 C 208.601562 268.652344 201.929688 275.328125 191.921875 275.328125 C 181.914062 275.328125 175.238281 268.652344 175.238281 258.644531 L 175.238281 208.601562 L 125.195312 208.601562 C 115.1875 208.601562 108.515625 201.929688 108.515625 191.921875 C 108.515625 181.914062 115.1875 175.238281 125.195312 175.238281 L 175.238281 175.238281 L 175.238281 125.195312 C 175.238281 115.1875 181.914062 108.515625 191.921875 108.515625 C 201.929688 108.515625 208.601562 115.1875 208.601562 125.195312 L 208.601562 175.238281 L 258.644531 175.238281 C 268.652344 175.238281 275.328125 181.914062 275.328125 191.921875 C 275.328125 201.929688 268.652344 208.601562 258.644531 208.601562 Z M 258.644531 208.601562 " fill-opacity="1" fill-rule="nonzero"/></g></svg>