<svg xmlns="http://www.w3.org/2000/svg" xmlns:xlink="http://www.w3.org/1999/xlink" width="500" zoomAndPan="magnify" viewBox="0 0 375 374.999991" height="500" preserveAspectRatio="xMidYMid meet" version="1.0"><defs><clipPath id="ed87d690b4"><path d="M 0 77.109375 L 375 77.109375 L 375 297.609375 L 0 297.609375 Z M 0 77.109375 " clip-rule="nonzero"/></clipPath></defs><g clip-path="url(#ed87d690b4)"><path fill="#000000" d="M 295.289062 108.300781 C 314.785156 108.300781 330.644531 124.160156 330.644531 143.648438 C 330.644531 163.136719 314.785156 178.996094 295.289062 178.996094 C 275.804688 178.996094 259.945312 163.136719 259.945312 143.648438 C 259.945312 124.160156 275.804688 108.300781 295.289062 108.300781 Z M 44.253906 143.648438 C 44.253906 124.160156 60.113281 108.300781 79.609375 108.300781 C 99.097656 108.300781 114.957031 124.160156 114.957031 143.648438 C 114.957031 163.136719 99.097656 178.996094 79.609375 178.996094 C 60.113281 178.996094 44.253906 163.136719 44.253906 143.648438 Z M 325.027344 180.066406 C 335.628906 171.394531 342.542969 158.382812 342.542969 143.648438 C 342.542969 117.59375 321.347656 96.402344 295.289062 96.402344 C 269.238281 96.402344 248.046875 117.59375 248.046875 143.648438 C 248.046875 156.234375 253.070312 167.621094 261.117188 176.097656 C 242.871094 168.308594 219.574219 149.667969 217.050781 105.039062 C 217.027344 104.671875 216.910156 104.335938 216.878906 103.972656 C 216.761719 102.746094 216.558594 101.554688 216.300781 100.371094 C 216.140625 99.664062 215.984375 98.964844 215.773438 98.277344 C 215.402344 97.027344 214.933594 95.835938 214.40625 94.65625 C 214.167969 94.128906 213.933594 93.601562 213.667969 93.09375 C 213 91.816406 212.238281 90.621094 211.398438 89.457031 C 211.152344 89.121094 210.917969 88.78125 210.660156 88.449219 C 209.699219 87.238281 208.648438 86.128906 207.519531 85.074219 C 207.269531 84.84375 207.03125 84.613281 206.777344 84.394531 C 205.625 83.394531 204.390625 82.503906 203.089844 81.6875 C 202.738281 81.460938 202.394531 81.238281 202.03125 81.03125 C 200.84375 80.355469 199.605469 79.78125 198.320312 79.273438 C 197.71875 79.03125 197.117188 78.792969 196.496094 78.589844 C 195.410156 78.242188 194.304688 77.972656 193.167969 77.746094 C 192.28125 77.570312 191.398438 77.421875 190.492188 77.324219 C 190.023438 77.277344 189.59375 77.128906 189.117188 77.105469 C 188.59375 77.082031 188.105469 77.1875 187.589844 77.191406 C 186.976562 77.1875 186.382812 77.074219 185.757812 77.109375 C 185.117188 77.144531 184.527344 77.332031 183.898438 77.40625 C 183.335938 77.480469 182.789062 77.566406 182.238281 77.667969 C 180.710938 77.941406 179.242188 78.316406 177.808594 78.808594 C 177.515625 78.910156 177.234375 79.023438 176.941406 79.132812 C 175.417969 79.710938 173.96875 80.394531 172.578125 81.207031 C 172.304688 81.363281 172.046875 81.535156 171.773438 81.703125 C 170.488281 82.515625 169.269531 83.394531 168.128906 84.382812 C 167.753906 84.703125 167.402344 85.042969 167.042969 85.386719 C 166.097656 86.292969 165.203125 87.234375 164.382812 88.257812 C 163.941406 88.800781 163.546875 89.363281 163.148438 89.9375 C 162.496094 90.878906 161.886719 91.835938 161.34375 92.851562 C 160.964844 93.5625 160.640625 94.292969 160.3125 95.035156 C 159.878906 96.046875 159.484375 97.0625 159.160156 98.125 C 158.925781 98.910156 158.734375 99.703125 158.5625 100.515625 C 158.320312 101.640625 158.136719 102.777344 158.023438 103.945312 C 157.992188 104.316406 157.871094 104.664062 157.847656 105.039062 C 155.316406 149.660156 132.03125 168.304688 113.785156 176.09375 C 121.832031 167.613281 126.851562 156.234375 126.851562 143.648438 C 126.851562 117.59375 105.660156 96.402344 79.609375 96.402344 C 53.550781 96.402344 32.363281 117.59375 32.363281 143.648438 C 32.363281 158.382812 39.273438 171.394531 49.875 180.066406 C 21.625 185.074219 0.0703125 209.667969 0.0703125 239.328125 L 0.0703125 291.949219 C 0.0703125 295.238281 2.730469 297.898438 6.023438 297.898438 C 9.308594 297.898438 11.964844 295.238281 11.964844 291.949219 L 11.964844 239.328125 C 11.964844 212.625 33.695312 190.898438 60.398438 190.898438 L 106.625 190.898438 C 107.183594 190.898438 107.726562 190.824219 108.261719 190.671875 C 129.769531 184.519531 166.34375 165.308594 169.726562 105.710938 C 170.273438 95.980469 178.660156 88.445312 188.464844 88.984375 C 198.246094 89.542969 205.753906 97.949219 205.195312 107.722656 C 200.90625 183.527344 153.121094 212.03125 125.019531 222.273438 C 122.667969 223.128906 121.101562 225.363281 121.101562 227.863281 L 121.101562 291.949219 C 121.101562 295.238281 123.765625 297.898438 127.046875 297.898438 C 130.339844 297.898438 133 295.238281 133 291.949219 L 133 231.957031 C 149.371094 225.441406 170.457031 213.445312 187.476562 192.132812 C 204.492188 213.414062 225.527344 225.445312 241.886719 231.957031 L 241.886719 291.949219 C 241.886719 295.238281 244.550781 297.898438 247.835938 297.898438 C 251.128906 297.898438 253.785156 295.238281 253.785156 291.949219 L 253.785156 227.863281 C 253.785156 225.363281 252.21875 223.128906 249.871094 222.273438 C 233.976562 216.480469 211.886719 204.621094 194.839844 181.878906 C 202.207031 170.417969 208.320312 156.699219 212.320312 140.339844 C 224.683594 173.148438 250.039062 185.921875 266.625 190.671875 C 267.160156 190.824219 267.703125 190.898438 268.261719 190.898438 L 314.503906 190.898438 C 341.203125 190.898438 362.929688 212.625 362.929688 239.328125 L 362.929688 291.949219 C 362.929688 295.238281 365.59375 297.898438 368.878906 297.898438 C 372.164062 297.898438 374.828125 295.238281 374.828125 291.949219 L 374.828125 239.328125 C 374.828125 209.667969 353.273438 185.074219 325.027344 180.066406 " fill-opacity="1" fill-rule="nonzero"/></g></svg>