<svg xmlns="http://www.w3.org/2000/svg" xmlns:xlink="http://www.w3.org/1999/xlink" width="500" zoomAndPan="magnify" viewBox="0 0 375 374.999991" height="500" preserveAspectRatio="xMidYMid meet" version="1.0"><defs><clipPath id="df11b161b1"><path d="M 10 0 L 371 0 L 371 361 L 10 361 Z M 10 0 " clip-rule="nonzero"/></clipPath><clipPath id="843c379431"><path d="M 190.667969 0.539062 C 186.589844 0.535156 182.519531 0.671875 178.453125 0.949219 C 174.382812 1.222656 170.332031 1.636719 166.292969 2.183594 C 162.253906 2.734375 158.238281 3.421875 154.246094 4.242188 C 150.25 5.0625 146.292969 6.019531 142.363281 7.109375 C 138.4375 8.199219 134.550781 9.421875 130.707031 10.777344 C 126.859375 12.128906 123.066406 13.613281 119.324219 15.222656 C 115.578125 16.835938 111.894531 18.570312 108.265625 20.429688 C 104.640625 22.292969 101.082031 24.273438 97.589844 26.375 C 94.097656 28.476562 90.683594 30.695312 87.34375 33.03125 C 84 35.363281 80.742188 37.808594 77.570312 40.363281 C 74.394531 42.917969 71.308594 45.578125 68.316406 48.339844 C 65.320312 51.105469 62.421875 53.964844 59.625 56.925781 C 56.824219 59.886719 54.125 62.9375 51.535156 66.082031 C 48.941406 69.222656 46.457031 72.453125 44.085938 75.761719 C 41.710938 79.074219 39.453125 82.460938 37.308594 85.925781 C 35.164062 89.390625 33.140625 92.925781 31.238281 96.527344 C 29.335938 100.128906 27.554688 103.789062 25.898438 107.511719 C 24.246094 111.234375 22.71875 115.007812 21.320312 118.835938 C 19.921875 122.660156 18.652344 126.527344 17.519531 130.441406 C 16.382812 134.351562 15.378906 138.296875 14.511719 142.277344 C 13.644531 146.257812 12.914062 150.261719 12.316406 154.292969 C 11.71875 158.320312 11.261719 162.363281 10.941406 166.425781 C 10.617188 170.484375 10.433594 174.550781 10.390625 178.625 C 10.34375 182.699219 10.4375 186.769531 10.667969 190.835938 C 10.902344 194.902344 11.269531 198.953125 11.777344 202.996094 C 12.28125 207.039062 12.925781 211.058594 13.703125 215.054688 C 14.484375 219.054688 15.398438 223.019531 16.445312 226.957031 C 17.496094 230.890625 18.675781 234.789062 19.992188 238.644531 C 21.304688 242.5 22.746094 246.308594 24.320312 250.066406 C 25.890625 253.824219 27.585938 257.523438 29.410156 261.167969 C 31.234375 264.808594 33.179688 268.386719 35.246094 271.898438 C 37.3125 275.410156 39.492188 278.847656 41.792969 282.210938 L 21.578125 342.691406 C 21.265625 343.621094 21.207031 344.5625 21.398438 345.523438 C 21.59375 346.480469 22.011719 347.328125 22.664062 348.058594 C 23.3125 348.792969 24.101562 349.3125 25.03125 349.625 C 25.960938 349.933594 26.902344 349.988281 27.863281 349.789062 L 98.71875 335.652344 C 101.691406 337.410156 104.710938 339.082031 107.777344 340.667969 C 110.84375 342.253906 113.953125 343.75 117.105469 345.15625 C 120.257812 346.5625 123.449219 347.878906 126.679688 349.101562 C 129.90625 350.324219 133.167969 351.457031 136.460938 352.492188 C 139.753906 353.527344 143.074219 354.46875 146.421875 355.316406 C 149.769531 356.164062 153.140625 356.910156 156.53125 357.5625 C 159.921875 358.214844 163.328125 358.769531 166.75 359.226562 C 170.171875 359.683594 173.605469 360.042969 177.046875 360.304688 C 180.492188 360.5625 183.9375 360.722656 187.390625 360.785156 C 190.84375 360.847656 194.292969 360.8125 197.746094 360.675781 C 201.195312 360.539062 204.640625 360.304688 208.074219 359.96875 C 211.511719 359.636719 214.9375 359.203125 218.347656 358.671875 C 221.761719 358.140625 225.15625 357.515625 228.53125 356.789062 C 231.90625 356.0625 235.257812 355.242188 238.585938 354.324219 C 241.914062 353.40625 245.214844 352.394531 248.484375 351.285156 C 251.753906 350.179688 254.992188 348.980469 258.191406 347.6875 C 261.394531 346.394531 264.554688 345.011719 267.675781 343.535156 C 270.800781 342.0625 273.875 340.5 276.90625 338.847656 C 279.941406 337.195312 282.921875 335.460938 285.851562 333.636719 C 288.785156 331.8125 291.664062 329.910156 294.484375 327.921875 C 297.308594 325.933594 300.070312 323.867188 302.773438 321.722656 C 305.476562 319.574219 308.117188 317.351562 310.695312 315.054688 C 313.269531 312.757812 315.777344 310.386719 318.214844 307.945312 C 320.65625 305.503906 323.023438 302.996094 325.320312 300.417969 C 327.613281 297.839844 329.832031 295.199219 331.976562 292.492188 C 334.121094 289.789062 336.183594 287.023438 338.167969 284.199219 C 340.152344 281.378906 342.054688 278.5 343.875 275.566406 C 345.691406 272.632812 347.425781 269.652344 349.074219 266.621094 C 350.71875 263.585938 352.277344 260.511719 353.75 257.390625 C 355.21875 254.265625 356.597656 251.105469 357.886719 247.90625 C 359.175781 244.703125 360.371094 241.46875 361.476562 238.199219 C 362.578125 234.929688 363.585938 231.632812 364.5 228.304688 C 365.410156 224.976562 366.226562 221.625 366.949219 218.25 C 367.667969 214.878906 368.292969 211.484375 368.816406 208.074219 C 369.339844 204.664062 369.769531 201.242188 370.097656 197.808594 C 370.425781 194.375 370.65625 190.933594 370.785156 187.484375 C 370.914062 184.039062 370.945312 180.589844 370.878906 177.140625 C 370.8125 173.691406 370.644531 170.246094 370.378906 166.804688 C 370.113281 163.367188 369.75 159.9375 369.285156 156.515625 C 368.820312 153.097656 368.261719 149.695312 367.601562 146.308594 C 366.945312 142.921875 366.1875 139.554688 365.335938 136.214844 C 364.484375 132.871094 363.535156 129.554688 362.492188 126.265625 C 361.449219 122.976562 360.3125 119.71875 359.082031 116.496094 C 357.851562 113.273438 356.53125 110.085938 355.117188 106.9375 C 353.703125 103.789062 352.199219 100.6875 350.609375 97.625 C 349.015625 94.5625 347.339844 91.550781 345.574219 88.582031 C 343.808594 85.617188 341.960938 82.707031 340.027344 79.847656 C 338.09375 76.988281 336.082031 74.1875 333.988281 71.445312 C 331.894531 68.699219 329.722656 66.019531 327.472656 63.398438 C 325.226562 60.78125 322.90625 58.230469 320.507812 55.742188 C 318.113281 53.257812 315.652344 50.84375 313.117188 48.5 C 310.582031 46.15625 307.984375 43.886719 305.320312 41.691406 C 302.65625 39.496094 299.929688 37.378906 297.144531 35.339844 C 294.359375 33.300781 291.515625 31.34375 288.617188 29.46875 C 285.71875 27.59375 282.769531 25.804688 279.769531 24.097656 C 276.769531 22.394531 273.71875 20.773438 270.625 19.242188 C 267.53125 17.710938 264.394531 16.269531 261.21875 14.921875 C 258.039062 13.570312 254.828125 12.3125 251.578125 11.144531 C 248.328125 9.976562 245.046875 8.90625 241.734375 7.929688 C 238.425781 6.949219 235.089844 6.066406 231.726562 5.28125 C 228.363281 4.496094 224.980469 3.804688 221.582031 3.210938 C 218.179688 2.621094 214.761719 2.125 211.332031 1.730469 C 207.902344 1.332031 204.464844 1.035156 201.015625 0.835938 C 197.570312 0.636719 194.121094 0.539062 190.667969 0.539062 Z M 299.929688 225.273438 C 299.929688 226.078125 299.871094 226.878906 299.75 227.675781 C 299.632812 228.472656 299.457031 229.253906 299.222656 230.023438 C 298.988281 230.792969 298.699219 231.542969 298.351562 232.269531 C 298.007812 232.996094 297.613281 233.695312 297.164062 234.363281 C 296.714844 235.035156 296.222656 235.667969 295.679688 236.261719 C 295.140625 236.859375 294.558594 237.410156 293.933594 237.921875 C 293.3125 238.433594 292.65625 238.894531 291.964844 239.308594 C 291.273438 239.722656 290.554688 240.082031 289.8125 240.390625 C 289.066406 240.699219 288.304688 240.949219 287.523438 241.144531 C 286.742188 241.339844 285.949219 241.476562 285.148438 241.558594 C 284.347656 241.636719 283.542969 241.65625 282.738281 241.617188 C 281.933594 241.578125 281.136719 241.480469 280.347656 241.324219 C 279.558594 241.164062 278.785156 240.953125 278.023438 240.679688 C 277.265625 240.410156 276.53125 240.085938 275.820312 239.707031 C 275.109375 239.328125 274.433594 238.898438 273.785156 238.417969 C 273.136719 237.941406 272.527344 237.414062 271.960938 236.847656 L 245.296875 210.207031 L 245.296875 218.886719 C 245.296875 219.78125 245.253906 220.671875 245.167969 221.5625 C 245.078125 222.453125 244.949219 223.335938 244.773438 224.210938 C 244.597656 225.089844 244.382812 225.957031 244.121094 226.8125 C 243.863281 227.667969 243.5625 228.507812 243.21875 229.332031 C 242.878906 230.160156 242.496094 230.964844 242.074219 231.753906 C 241.652344 232.542969 241.191406 233.308594 240.695312 234.050781 C 240.199219 234.792969 239.664062 235.511719 239.097656 236.203125 C 238.53125 236.894531 237.929688 237.554688 237.296875 238.1875 C 236.664062 238.820312 236.003906 239.417969 235.3125 239.984375 C 234.621094 240.554688 233.902344 241.085938 233.160156 241.582031 C 232.414062 242.078125 231.648438 242.539062 230.859375 242.957031 C 230.070312 243.378906 229.261719 243.761719 228.4375 244.105469 C 227.609375 244.445312 226.769531 244.746094 225.914062 245.007812 C 225.054688 245.265625 224.1875 245.484375 223.3125 245.65625 C 222.433594 245.832031 221.550781 245.960938 220.660156 246.050781 C 219.769531 246.136719 218.878906 246.179688 217.984375 246.179688 L 108.71875 246.179688 C 107.824219 246.179688 106.929688 246.136719 106.039062 246.050781 C 105.152344 245.960938 104.265625 245.832031 103.390625 245.65625 C 102.511719 245.484375 101.644531 245.265625 100.789062 245.007812 C 99.933594 244.746094 99.089844 244.445312 98.265625 244.105469 C 97.4375 243.761719 96.628906 243.378906 95.839844 242.957031 C 95.050781 242.539062 94.285156 242.078125 93.542969 241.582031 C 92.796875 241.085938 92.082031 240.554688 91.390625 239.984375 C 90.699219 239.417969 90.035156 238.820312 89.402344 238.1875 C 88.769531 237.554688 88.171875 236.894531 87.601562 236.203125 C 87.035156 235.511719 86.503906 234.792969 86.003906 234.050781 C 85.507812 233.308594 85.050781 232.542969 84.628906 231.753906 C 84.207031 230.964844 83.824219 230.160156 83.480469 229.332031 C 83.140625 228.507812 82.839844 227.667969 82.578125 226.8125 C 82.320312 225.957031 82.101562 225.089844 81.925781 224.210938 C 81.753906 223.335938 81.621094 222.453125 81.535156 221.5625 C 81.445312 220.671875 81.402344 219.78125 81.402344 218.886719 L 81.402344 142.464844 C 81.402344 141.570312 81.445312 140.679688 81.535156 139.789062 C 81.621094 138.902344 81.753906 138.015625 81.925781 137.140625 C 82.101562 136.265625 82.320312 135.398438 82.578125 134.542969 C 82.839844 133.6875 83.140625 132.847656 83.480469 132.019531 C 83.824219 131.195312 84.207031 130.386719 84.628906 129.597656 C 85.050781 128.8125 85.507812 128.046875 86.003906 127.300781 C 86.503906 126.558594 87.035156 125.839844 87.601562 125.148438 C 88.171875 124.460938 88.769531 123.796875 89.402344 123.164062 C 90.035156 122.535156 90.699219 121.933594 91.390625 121.367188 C 92.082031 120.800781 92.796875 120.269531 93.542969 119.769531 C 94.285156 119.273438 95.050781 118.816406 95.839844 118.394531 C 96.628906 117.972656 97.4375 117.589844 98.265625 117.25 C 99.089844 116.90625 99.933594 116.605469 100.789062 116.347656 C 101.644531 116.085938 102.511719 115.871094 103.390625 115.695312 C 104.265625 115.523438 105.152344 115.390625 106.039062 115.304688 C 106.929688 115.214844 107.824219 115.171875 108.71875 115.171875 L 217.984375 115.171875 C 218.878906 115.171875 219.769531 115.214844 220.660156 115.304688 C 221.550781 115.390625 222.433594 115.523438 223.3125 115.695312 C 224.1875 115.871094 225.054688 116.085938 225.914062 116.347656 C 226.769531 116.605469 227.609375 116.90625 228.4375 117.25 C 229.261719 117.589844 230.070312 117.972656 230.859375 118.394531 C 231.648438 118.816406 232.414062 119.273438 233.160156 119.769531 C 233.902344 120.269531 234.621094 120.800781 235.3125 121.367188 C 236.003906 121.933594 236.664062 122.535156 237.296875 123.164062 C 237.929688 123.796875 238.53125 124.460938 239.097656 125.148438 C 239.664062 125.839844 240.199219 126.558594 240.695312 127.300781 C 241.191406 128.046875 241.652344 128.8125 242.074219 129.597656 C 242.496094 130.386719 242.878906 131.195312 243.21875 132.019531 C 243.5625 132.847656 243.863281 133.6875 244.121094 134.542969 C 244.382812 135.398438 244.597656 136.265625 244.773438 137.140625 C 244.949219 138.015625 245.078125 138.902344 245.167969 139.789062 C 245.253906 140.679688 245.296875 141.570312 245.296875 142.464844 L 245.296875 151.144531 L 271.960938 124.507812 C 272.527344 123.9375 273.136719 123.414062 273.785156 122.933594 C 274.433594 122.457031 275.109375 122.027344 275.820312 121.648438 C 276.53125 121.269531 277.265625 120.941406 278.023438 120.671875 C 278.785156 120.402344 279.558594 120.1875 280.347656 120.03125 C 281.136719 119.875 281.933594 119.777344 282.738281 119.734375 C 283.542969 119.695312 284.347656 119.714844 285.148438 119.796875 C 285.949219 119.875 286.742188 120.011719 287.523438 120.207031 C 288.304688 120.402344 289.066406 120.65625 289.8125 120.960938 C 290.554688 121.269531 291.273438 121.632812 291.964844 122.042969 C 292.65625 122.457031 293.3125 122.921875 293.933594 123.429688 C 294.558594 123.941406 295.140625 124.496094 295.679688 125.089844 C 296.222656 125.6875 296.714844 126.320312 297.164062 126.988281 C 297.613281 127.65625 298.007812 128.355469 298.351562 129.082031 C 298.699219 129.808594 298.988281 130.558594 299.222656 131.328125 C 299.457031 132.097656 299.632812 132.882812 299.75 133.675781 C 299.871094 134.472656 299.929688 135.273438 299.929688 136.078125 Z M 299.929688 225.273438 " clip-rule="nonzero"/></clipPath><linearGradient x1="-0.154708" gradientTransform="matrix(5.463225, 0, 0, 5.45875, -6.009542, -15.83844)" y1="6.037125" x2="64.646459" gradientUnits="userSpaceOnUse" y2="73.205084" id="6a7f534096"><stop stop-opacity="1" stop-color="rgb(89.726257%, 33.853149%, 34.336853%)" offset="0"/><stop stop-opacity="1" stop-color="rgb(89.556885%, 33.764648%, 34.27887%)" offset="0.0078125"/><stop stop-opacity="1" stop-color="rgb(89.219666%, 33.587646%, 34.162903%)" offset="0.015625"/><stop stop-opacity="1" stop-color="rgb(88.88092%, 33.410645%, 34.046936%)" offset="0.0234375"/><stop stop-opacity="1" stop-color="rgb(88.542175%, 33.235168%, 33.932495%)" offset="0.03125"/><stop stop-opacity="1" stop-color="rgb(88.204956%, 33.058167%, 33.816528%)" offset="0.0390625"/><stop stop-opacity="1" stop-color="rgb(87.866211%, 32.881165%, 33.700562%)" offset="0.046875"/><stop stop-opacity="1" stop-color="rgb(87.527466%, 32.705688%, 33.584595%)" offset="0.0546875"/><stop stop-opacity="1" stop-color="rgb(87.190247%, 32.528687%, 33.468628%)" offset="0.0625"/><stop stop-opacity="1" stop-color="rgb(86.851501%, 32.351685%, 33.352661%)" offset="0.0703125"/><stop stop-opacity="1" stop-color="rgb(86.512756%, 32.176208%, 33.236694%)" offset="0.078125"/><stop stop-opacity="1" stop-color="rgb(86.175537%, 31.999207%, 33.120728%)" offset="0.0859375"/><stop stop-opacity="1" stop-color="rgb(85.836792%, 31.822205%, 33.004761%)" offset="0.09375"/><stop stop-opacity="1" stop-color="rgb(85.498047%, 31.646729%, 32.888794%)" offset="0.101563"/><stop stop-opacity="1" stop-color="rgb(85.160828%, 31.469727%, 32.772827%)" offset="0.109375"/><stop stop-opacity="1" stop-color="rgb(84.822083%, 31.292725%, 32.65686%)" offset="0.117188"/><stop stop-opacity="1" stop-color="rgb(84.483337%, 31.117249%, 32.540894%)" offset="0.125"/><stop stop-opacity="1" stop-color="rgb(84.146118%, 30.940247%, 32.424927%)" offset="0.132813"/><stop stop-opacity="1" stop-color="rgb(83.807373%, 30.763245%, 32.310486%)" offset="0.140625"/><stop stop-opacity="1" stop-color="rgb(83.468628%, 30.586243%, 32.194519%)" offset="0.148438"/><stop stop-opacity="1" stop-color="rgb(83.131409%, 30.410767%, 32.078552%)" offset="0.15625"/><stop stop-opacity="1" stop-color="rgb(82.792664%, 30.233765%, 31.962585%)" offset="0.164062"/><stop stop-opacity="1" stop-color="rgb(82.453918%, 30.056763%, 31.846619%)" offset="0.171875"/><stop stop-opacity="1" stop-color="rgb(82.116699%, 29.881287%, 31.730652%)" offset="0.179688"/><stop stop-opacity="1" stop-color="rgb(81.777954%, 29.704285%, 31.614685%)" offset="0.1875"/><stop stop-opacity="1" stop-color="rgb(81.439209%, 29.527283%, 31.498718%)" offset="0.195313"/><stop stop-opacity="1" stop-color="rgb(81.10199%, 29.351807%, 31.382751%)" offset="0.203125"/><stop stop-opacity="1" stop-color="rgb(80.763245%, 29.174805%, 31.266785%)" offset="0.210938"/><stop stop-opacity="1" stop-color="rgb(80.4245%, 28.997803%, 31.150818%)" offset="0.21875"/><stop stop-opacity="1" stop-color="rgb(80.08728%, 28.822327%, 31.034851%)" offset="0.226563"/><stop stop-opacity="1" stop-color="rgb(79.748535%, 28.645325%, 30.918884%)" offset="0.234375"/><stop stop-opacity="1" stop-color="rgb(79.40979%, 28.468323%, 30.802917%)" offset="0.242188"/><stop stop-opacity="1" stop-color="rgb(79.071045%, 28.292847%, 30.688477%)" offset="0.25"/><stop stop-opacity="1" stop-color="rgb(78.733826%, 28.115845%, 30.57251%)" offset="0.257813"/><stop stop-opacity="1" stop-color="rgb(78.395081%, 27.938843%, 30.456543%)" offset="0.265625"/><stop stop-opacity="1" stop-color="rgb(78.056335%, 27.763367%, 30.340576%)" offset="0.273438"/><stop stop-opacity="1" stop-color="rgb(77.719116%, 27.586365%, 30.224609%)" offset="0.28125"/><stop stop-opacity="1" stop-color="rgb(77.380371%, 27.409363%, 30.108643%)" offset="0.289062"/><stop stop-opacity="1" stop-color="rgb(77.041626%, 27.233887%, 29.992676%)" offset="0.296875"/><stop stop-opacity="1" stop-color="rgb(76.704407%, 27.056885%, 29.876709%)" offset="0.304688"/><stop stop-opacity="1" stop-color="rgb(76.365662%, 26.879883%, 29.760742%)" offset="0.3125"/><stop stop-opacity="1" stop-color="rgb(76.026917%, 26.704407%, 29.644775%)" offset="0.320313"/><stop stop-opacity="1" stop-color="rgb(75.689697%, 26.527405%, 29.528809%)" offset="0.328125"/><stop stop-opacity="1" stop-color="rgb(75.350952%, 26.350403%, 29.412842%)" offset="0.335938"/><stop stop-opacity="1" stop-color="rgb(75.012207%, 26.174927%, 29.296875%)" offset="0.34375"/><stop stop-opacity="1" stop-color="rgb(74.674988%, 25.997925%, 29.180908%)" offset="0.351563"/><stop stop-opacity="1" stop-color="rgb(74.336243%, 25.820923%, 29.066467%)" offset="0.359375"/><stop stop-opacity="1" stop-color="rgb(73.997498%, 25.645447%, 28.9505%)" offset="0.367188"/><stop stop-opacity="1" stop-color="rgb(73.660278%, 25.468445%, 28.834534%)" offset="0.375"/><stop stop-opacity="1" stop-color="rgb(73.321533%, 25.291443%, 28.718567%)" offset="0.382813"/><stop stop-opacity="1" stop-color="rgb(72.982788%, 25.115967%, 28.6026%)" offset="0.390625"/><stop stop-opacity="1" stop-color="rgb(72.645569%, 24.938965%, 28.486633%)" offset="0.398438"/><stop stop-opacity="1" stop-color="rgb(72.306824%, 24.761963%, 28.370667%)" offset="0.40625"/><stop stop-opacity="1" stop-color="rgb(71.968079%, 24.584961%, 28.2547%)" offset="0.414062"/><stop stop-opacity="1" stop-color="rgb(71.630859%, 24.409485%, 28.138733%)" offset="0.421875"/><stop stop-opacity="1" stop-color="rgb(71.292114%, 24.232483%, 28.022766%)" offset="0.429688"/><stop stop-opacity="1" stop-color="rgb(70.953369%, 24.055481%, 27.906799%)" offset="0.4375"/><stop stop-opacity="1" stop-color="rgb(70.61615%, 23.880005%, 27.790833%)" offset="0.445313"/><stop stop-opacity="1" stop-color="rgb(70.277405%, 23.703003%, 27.674866%)" offset="0.453125"/><stop stop-opacity="1" stop-color="rgb(69.93866%, 23.526001%, 27.558899%)" offset="0.460938"/><stop stop-opacity="1" stop-color="rgb(69.60144%, 23.350525%, 27.444458%)" offset="0.46875"/><stop stop-opacity="1" stop-color="rgb(69.262695%, 23.173523%, 27.328491%)" offset="0.476563"/><stop stop-opacity="1" stop-color="rgb(68.92395%, 22.996521%, 27.212524%)" offset="0.484375"/><stop stop-opacity="1" stop-color="rgb(68.586731%, 22.821045%, 27.096558%)" offset="0.491029"/><stop stop-opacity="1" stop-color="rgb(68.417358%, 22.732544%, 27.038574%)" offset="0.492188"/><stop stop-opacity="1" stop-color="rgb(68.247986%, 22.644043%, 26.980591%)" offset="0.5"/><stop stop-opacity="1" stop-color="rgb(67.909241%, 22.467041%, 26.864624%)" offset="0.507812"/><stop stop-opacity="1" stop-color="rgb(67.572021%, 22.291565%, 26.748657%)" offset="0.508971"/><stop stop-opacity="1" stop-color="rgb(67.402649%, 22.203064%, 26.690674%)" offset="0.515625"/><stop stop-opacity="1" stop-color="rgb(67.233276%, 22.114563%, 26.63269%)" offset="0.523437"/><stop stop-opacity="1" stop-color="rgb(66.894531%, 21.937561%, 26.516724%)" offset="0.53125"/><stop stop-opacity="1" stop-color="rgb(66.557312%, 21.762085%, 26.400757%)" offset="0.539062"/><stop stop-opacity="1" stop-color="rgb(66.218567%, 21.585083%, 26.28479%)" offset="0.546875"/><stop stop-opacity="1" stop-color="rgb(65.879822%, 21.408081%, 26.168823%)" offset="0.554687"/><stop stop-opacity="1" stop-color="rgb(65.542603%, 21.232605%, 26.052856%)" offset="0.5625"/><stop stop-opacity="1" stop-color="rgb(65.203857%, 21.055603%, 25.93689%)" offset="0.570312"/><stop stop-opacity="1" stop-color="rgb(64.865112%, 20.878601%, 25.822449%)" offset="0.578125"/><stop stop-opacity="1" stop-color="rgb(64.527893%, 20.703125%, 25.706482%)" offset="0.585937"/><stop stop-opacity="1" stop-color="rgb(64.189148%, 20.526123%, 25.590515%)" offset="0.59375"/><stop stop-opacity="1" stop-color="rgb(63.850403%, 20.349121%, 25.474548%)" offset="0.601562"/><stop stop-opacity="1" stop-color="rgb(63.513184%, 20.173645%, 25.358582%)" offset="0.609375"/><stop stop-opacity="1" stop-color="rgb(63.174438%, 19.996643%, 25.242615%)" offset="0.617188"/><stop stop-opacity="1" stop-color="rgb(62.835693%, 19.819641%, 25.126648%)" offset="0.625"/><stop stop-opacity="1" stop-color="rgb(62.498474%, 19.644165%, 25.010681%)" offset="0.632812"/><stop stop-opacity="1" stop-color="rgb(62.159729%, 19.467163%, 24.894714%)" offset="0.640625"/><stop stop-opacity="1" stop-color="rgb(61.820984%, 19.290161%, 24.778748%)" offset="0.648438"/><stop stop-opacity="1" stop-color="rgb(61.483765%, 19.114685%, 24.662781%)" offset="0.65625"/><stop stop-opacity="1" stop-color="rgb(61.14502%, 18.937683%, 24.546814%)" offset="0.664063"/><stop stop-opacity="1" stop-color="rgb(60.806274%, 18.760681%, 24.430847%)" offset="0.671875"/><stop stop-opacity="1" stop-color="rgb(60.469055%, 18.585205%, 24.31488%)" offset="0.679688"/><stop stop-opacity="1" stop-color="rgb(60.13031%, 18.408203%, 24.200439%)" offset="0.6875"/><stop stop-opacity="1" stop-color="rgb(59.791565%, 18.231201%, 24.084473%)" offset="0.695313"/><stop stop-opacity="1" stop-color="rgb(59.454346%, 18.054199%, 23.968506%)" offset="0.703125"/><stop stop-opacity="1" stop-color="rgb(59.115601%, 17.878723%, 23.852539%)" offset="0.710938"/><stop stop-opacity="1" stop-color="rgb(58.776855%, 17.701721%, 23.736572%)" offset="0.71875"/><stop stop-opacity="1" stop-color="rgb(58.439636%, 17.524719%, 23.620605%)" offset="0.726563"/><stop stop-opacity="1" stop-color="rgb(58.100891%, 17.349243%, 23.504639%)" offset="0.734375"/><stop stop-opacity="1" stop-color="rgb(57.762146%, 17.172241%, 23.388672%)" offset="0.742188"/><stop stop-opacity="1" stop-color="rgb(57.424927%, 16.995239%, 23.272705%)" offset="0.75"/><stop stop-opacity="1" stop-color="rgb(57.086182%, 16.819763%, 23.156738%)" offset="0.757812"/><stop stop-opacity="1" stop-color="rgb(56.747437%, 16.642761%, 23.040771%)" offset="0.765625"/><stop stop-opacity="1" stop-color="rgb(56.410217%, 16.465759%, 22.924805%)" offset="0.773437"/><stop stop-opacity="1" stop-color="rgb(56.071472%, 16.290283%, 22.808838%)" offset="0.78125"/><stop stop-opacity="1" stop-color="rgb(55.732727%, 16.113281%, 22.692871%)" offset="0.789062"/><stop stop-opacity="1" stop-color="rgb(55.395508%, 15.936279%, 22.57843%)" offset="0.796875"/><stop stop-opacity="1" stop-color="rgb(55.056763%, 15.760803%, 22.462463%)" offset="0.804687"/><stop stop-opacity="1" stop-color="rgb(54.718018%, 15.583801%, 22.346497%)" offset="0.8125"/><stop stop-opacity="1" stop-color="rgb(54.380798%, 15.406799%, 22.23053%)" offset="0.820312"/><stop stop-opacity="1" stop-color="rgb(54.042053%, 15.231323%, 22.114563%)" offset="0.828125"/><stop stop-opacity="1" stop-color="rgb(53.703308%, 15.054321%, 21.998596%)" offset="0.835937"/><stop stop-opacity="1" stop-color="rgb(53.366089%, 14.877319%, 21.882629%)" offset="0.84375"/><stop stop-opacity="1" stop-color="rgb(53.027344%, 14.701843%, 21.766663%)" offset="0.851562"/><stop stop-opacity="1" stop-color="rgb(52.688599%, 14.524841%, 21.650696%)" offset="0.859375"/><stop stop-opacity="1" stop-color="rgb(52.351379%, 14.347839%, 21.534729%)" offset="0.867188"/><stop stop-opacity="1" stop-color="rgb(52.012634%, 14.172363%, 21.418762%)" offset="0.875"/><stop stop-opacity="1" stop-color="rgb(51.673889%, 13.995361%, 21.302795%)" offset="0.882812"/><stop stop-opacity="1" stop-color="rgb(51.33667%, 13.818359%, 21.186829%)" offset="0.890625"/><stop stop-opacity="1" stop-color="rgb(50.997925%, 13.642883%, 21.070862%)" offset="0.898438"/><stop stop-opacity="1" stop-color="rgb(50.65918%, 13.465881%, 20.956421%)" offset="0.90625"/><stop stop-opacity="1" stop-color="rgb(50.32196%, 13.288879%, 20.840454%)" offset="0.914063"/><stop stop-opacity="1" stop-color="rgb(49.983215%, 13.113403%, 20.724487%)" offset="0.921875"/><stop stop-opacity="1" stop-color="rgb(49.64447%, 12.936401%, 20.608521%)" offset="0.929688"/><stop stop-opacity="1" stop-color="rgb(49.307251%, 12.759399%, 20.492554%)" offset="0.9375"/><stop stop-opacity="1" stop-color="rgb(48.968506%, 12.583923%, 20.376587%)" offset="0.945313"/><stop stop-opacity="1" stop-color="rgb(48.629761%, 12.406921%, 20.26062%)" offset="0.953125"/><stop stop-opacity="1" stop-color="rgb(48.291016%, 12.229919%, 20.144653%)" offset="0.960938"/><stop stop-opacity="1" stop-color="rgb(47.953796%, 12.052917%, 20.028687%)" offset="0.96875"/><stop stop-opacity="1" stop-color="rgb(47.615051%, 11.877441%, 19.91272%)" offset="0.976563"/><stop stop-opacity="1" stop-color="rgb(47.276306%, 11.700439%, 19.796753%)" offset="0.984375"/><stop stop-opacity="1" stop-color="rgb(46.939087%, 11.523438%, 19.680786%)" offset="0.992188"/><stop stop-opacity="1" stop-color="rgb(46.734619%, 11.418152%, 19.610596%)" offset="1"/></linearGradient></defs><g clip-path="url(#df11b161b1)"><g clip-path="url(#843c379431)"><path fill="url(#6a7f534096)" d="M 10.34375 0.535156 L 10.34375 360.847656 L 370.945312 360.847656 L 370.945312 0.535156 Z M 10.34375 0.535156 " fill-rule="nonzero"/></g></g></svg>