<svg xmlns="http://www.w3.org/2000/svg" xmlns:xlink="http://www.w3.org/1999/xlink" width="500" zoomAndPan="magnify" viewBox="0 0 375 374.999991" height="500" preserveAspectRatio="xMidYMid meet" version="1.0"><defs><clipPath id="b3402bd6fe"><path d="M 0 37.5 L 296 37.5 L 296 98 L 0 98 Z M 0 37.5 " clip-rule="nonzero"/></clipPath><clipPath id="6cb8c553bf"><path d="M 0.496094 157 L 373.933594 157 L 373.933594 218 L 0.496094 218 Z M 0.496094 157 " clip-rule="nonzero"/></clipPath><clipPath id="ad5f52c1b1"><path d="M 0.496094 277.109375 L 233 277.109375 L 233 337.5 L 0.496094 337.5 Z M 0.496094 277.109375 " clip-rule="nonzero"/></clipPath></defs><g clip-path="url(#b3402bd6fe)"><path fill="#ffffff" d="M 265.585938 97.511719 L 30.5 97.511719 C 13.925781 97.511719 0.496094 84.078125 0.496094 67.503906 C 0.496094 50.9375 13.925781 37.503906 30.5 37.503906 L 265.585938 37.503906 C 282.160156 37.503906 295.59375 50.9375 295.59375 67.503906 C 295.59375 84.078125 282.160156 97.511719 265.585938 97.511719 " fill-opacity="1" fill-rule="nonzero"/></g><g clip-path="url(#6cb8c553bf)"><path fill="#ffffff" d="M 343.925781 217.535156 L 30.5 217.535156 C 13.925781 217.535156 0.496094 204.101562 0.496094 187.527344 C 0.496094 170.953125 13.925781 157.523438 30.5 157.523438 L 343.925781 157.523438 C 360.496094 157.523438 373.929688 170.953125 373.929688 187.527344 C 373.929688 204.101562 360.496094 217.535156 343.925781 217.535156 " fill-opacity="1" fill-rule="nonzero"/></g><g clip-path="url(#ad5f52c1b1)"><path fill="#ffffff" d="M 202.320312 337.558594 L 30.5 337.558594 C 13.925781 337.558594 0.496094 324.125 0.496094 307.550781 C 0.496094 290.976562 13.925781 277.546875 30.5 277.546875 L 202.320312 277.546875 C 218.894531 277.546875 232.324219 290.976562 232.324219 307.550781 C 232.324219 324.125 218.894531 337.558594 202.320312 337.558594 " fill-opacity="1" fill-rule="nonzero"/></g></svg>