<svg xmlns="http://www.w3.org/2000/svg" xmlns:xlink="http://www.w3.org/1999/xlink" width="500" zoomAndPan="magnify" viewBox="0 0 375 374.999991" height="500" preserveAspectRatio="xMidYMid meet" version="1.0"><path fill="#005479" d="M 187.5 58.824219 C 168 58.824219 152.140625 74.6875 152.140625 94.183594 C 152.140625 113.695312 168 129.558594 187.5 129.558594 C 207 129.558594 222.859375 113.695312 222.859375 94.183594 C 222.859375 74.6875 207 58.824219 187.5 58.824219 " fill-opacity="1" fill-rule="nonzero"/><path fill="#005479" d="M 280.757812 172.554688 C 264.898438 166.609375 230.160156 149.140625 223.953125 145.058594 C 211.40625 136.808594 199.820312 132.96875 187.5 132.96875 C 175.179688 132.96875 163.59375 136.808594 151.046875 145.058594 C 144.839844 149.140625 110.101562 166.609375 94.242188 172.554688 C 87.386719 175.125 83.507812 182.21875 85.03125 189.425781 C 85.921875 193.652344 88.597656 197.265625 92.382812 199.34375 C 94.613281 200.566406 97.089844 201.179688 99.539062 201.179688 C 101.253906 201.179688 102.960938 200.878906 104.582031 200.277344 L 147.035156 185.785156 C 148.511719 185.28125 150.003906 186.46875 149.835938 188.019531 C 146.339844 218.625 138.089844 291.484375 136.242188 310.417969 C 135.222656 320.730469 142.367188 329.773438 152.488281 330.984375 C 161.984375 332.125 170.628906 325.511719 173.066406 315.269531 C 174.617188 308.785156 183.070312 268.347656 185.808594 255.28125 C 186 254.371094 187.285156 254.371094 187.476562 255.28125 C 190.203125 268.347656 198.667969 308.773438 200.214844 315.269531 C 202.472656 324.742188 210.050781 331.117188 218.683594 331.117188 C 219.378906 331.117188 220.074219 331.070312 220.796875 330.984375 C 230.917969 329.773438 238.050781 320.730469 237.039062 310.417969 C 235.179688 291.351562 226.824219 217.628906 223.375 187.40625 C 223.195312 185.859375 224.699219 184.667969 226.175781 185.175781 L 270.289062 200.230469 C 271.980469 200.855469 273.734375 201.167969 275.5 201.167969 C 277.960938 201.167969 280.410156 200.554688 282.617188 199.34375 C 286.402344 197.265625 289.078125 193.652344 289.96875 189.425781 C 291.492188 182.21875 287.613281 175.125 280.757812 172.554688 " fill-opacity="1" fill-rule="nonzero"/><path fill="#005479" d="M 187.570312 34.210938 C 185.027344 34.210938 182.960938 32.144531 182.960938 29.601562 L 182.960938 -0.847656 C 182.960938 -3.394531 185.027344 -5.460938 187.570312 -5.460938 C 190.117188 -5.460938 192.183594 -3.394531 192.183594 -0.847656 L 192.183594 29.601562 C 192.183594 32.144531 190.117188 34.210938 187.570312 34.210938 " fill-opacity="1" fill-rule="nonzero"/><path fill="#005479" d="M 187.570312 380.539062 C 185.027344 380.539062 182.960938 378.484375 182.960938 375.929688 L 182.960938 345.492188 C 182.960938 342.945312 185.027344 340.878906 187.570312 340.878906 C 190.117188 340.878906 192.183594 342.945312 192.183594 345.492188 L 192.183594 375.929688 C 192.183594 378.484375 190.117188 380.539062 187.570312 380.539062 " fill-opacity="1" fill-rule="nonzero"/><path fill="#005479" d="M 313.730469 65.753906 C 312.550781 65.753906 311.375 65.308594 310.476562 64.410156 C 308.671875 62.621094 308.671875 59.691406 310.460938 57.886719 L 331.941406 36.3125 C 333.730469 34.511719 336.660156 34.5 338.464844 36.300781 C 340.265625 38.089844 340.277344 41.019531 338.476562 42.820312 L 317.007812 64.394531 C 316.105469 65.296875 314.917969 65.753906 313.730469 65.753906 " fill-opacity="1" fill-rule="nonzero"/><path fill="#005479" d="M 336.335938 340.566406 C 335.160156 340.566406 333.984375 340.125 333.082031 339.222656 L 311.507812 317.742188 C 309.707031 315.953125 309.695312 313.035156 311.496094 311.222656 C 313.285156 309.421875 316.203125 309.421875 318.015625 311.210938 L 339.589844 332.691406 C 341.394531 334.480469 341.394531 337.398438 339.605469 339.210938 C 338.703125 340.109375 337.515625 340.566406 336.335938 340.566406 " fill-opacity="1" fill-rule="nonzero"/><path fill="#005479" d="M 339.988281 191.933594 C 337.441406 191.933594 335.378906 189.878906 335.378906 187.335938 C 335.363281 184.789062 337.429688 182.722656 339.976562 182.710938 L 370.425781 182.640625 C 370.425781 182.640625 370.425781 182.640625 370.4375 182.640625 C 372.972656 182.640625 375.035156 184.707031 375.046875 187.238281 C 375.046875 189.785156 372.996094 191.863281 370.449219 191.863281 L 340 191.933594 C 339.988281 191.933594 339.988281 191.933594 339.988281 191.933594 " fill-opacity="1" fill-rule="nonzero"/><path fill="#005479" d="M 61.269531 65.753906 C 60.082031 65.753906 58.894531 65.296875 57.992188 64.394531 L 36.523438 42.820312 C 34.722656 41.019531 34.734375 38.089844 36.535156 36.300781 C 38.351562 34.5 41.269531 34.511719 43.070312 36.3125 L 64.539062 57.886719 C 66.339844 59.691406 66.328125 62.621094 64.523438 64.410156 C 63.625 65.308594 62.449219 65.753906 61.269531 65.753906 " fill-opacity="1" fill-rule="nonzero"/><path fill="#005479" d="M 38.664062 340.566406 C 37.484375 340.566406 36.296875 340.109375 35.394531 339.210938 C 33.59375 337.398438 33.605469 334.480469 35.410156 332.691406 L 56.984375 311.210938 C 58.796875 309.421875 61.703125 309.421875 63.503906 311.222656 C 65.304688 313.035156 65.292969 315.953125 63.492188 317.742188 L 41.917969 339.222656 C 41.015625 340.125 39.839844 340.566406 38.664062 340.566406 " fill-opacity="1" fill-rule="nonzero"/><path fill="#005479" d="M 35.011719 191.933594 C 35.011719 191.933594 35.011719 191.933594 35 191.933594 L 4.550781 191.863281 C 2.015625 191.863281 -0.046875 189.785156 -0.0351562 187.238281 C -0.0351562 184.707031 2.027344 182.640625 4.574219 182.640625 L 35.023438 182.710938 C 37.570312 182.722656 39.636719 184.789062 39.621094 187.335938 C 39.621094 189.878906 37.558594 191.933594 35.011719 191.933594 " fill-opacity="1" fill-rule="nonzero"/></svg>