<svg xmlns="http://www.w3.org/2000/svg" xmlns:xlink="http://www.w3.org/1999/xlink" width="500" zoomAndPan="magnify" viewBox="0 0 375 374.999991" height="500" preserveAspectRatio="xMidYMid meet" version="1.0"><defs><clipPath id="daa67f1213"><path d="M 0 78.519531 L 375 78.519531 L 375 204 L 0 204 Z M 0 78.519531 " clip-rule="nonzero"/></clipPath><clipPath id="66b1e08f7f"><path d="M 85 249 L 290 249 L 290 276.519531 L 85 276.519531 Z M 85 249 " clip-rule="nonzero"/></clipPath></defs><g clip-path="url(#daa67f1213)"><path fill="#a60032" d="M 312.703125 78.542969 L 62.320312 78.542969 C 60.269531 78.542969 58.222656 78.644531 56.183594 78.84375 C 54.144531 79.046875 52.117188 79.347656 50.109375 79.746094 C 48.097656 80.148438 46.109375 80.644531 44.148438 81.238281 C 42.1875 81.835938 40.257812 82.523438 38.363281 83.308594 C 36.472656 84.09375 34.621094 84.96875 32.8125 85.933594 C 31.003906 86.902344 29.246094 87.953125 27.542969 89.09375 C 25.839844 90.230469 24.195312 91.453125 22.609375 92.753906 C 21.023438 94.054688 19.507812 95.429688 18.058594 96.878906 C 16.609375 98.328125 15.234375 99.84375 13.933594 101.429688 C 12.632812 103.015625 11.410156 104.660156 10.273438 106.363281 C 9.132812 108.066406 8.082031 109.824219 7.113281 111.632812 C 6.148438 113.441406 5.273438 115.292969 4.488281 117.1875 C 3.703125 119.078125 3.015625 121.007812 2.417969 122.96875 C 1.824219 124.929688 1.324219 126.917969 0.925781 128.929688 C 0.527344 130.9375 0.226562 132.964844 0.0234375 135.003906 C -0.175781 137.042969 -0.277344 139.089844 -0.277344 141.140625 C -0.277344 143.191406 -0.175781 145.234375 0.0234375 147.277344 C 0.226562 149.316406 0.527344 151.339844 0.925781 153.351562 C 1.324219 155.363281 1.824219 157.347656 2.417969 159.3125 C 3.015625 161.273438 3.703125 163.199219 4.488281 165.09375 C 5.273438 166.988281 6.148438 168.839844 7.113281 170.648438 C 8.082031 172.457031 9.132812 174.210938 10.273438 175.917969 C 11.410156 177.621094 12.632812 179.265625 13.933594 180.851562 C 15.234375 182.433594 16.609375 183.953125 18.058594 185.402344 C 19.507812 186.851562 21.023438 188.226562 22.609375 189.527344 C 24.195312 190.828125 25.839844 192.046875 27.542969 193.1875 C 29.246094 194.324219 31.003906 195.378906 32.8125 196.34375 C 34.621094 197.3125 36.472656 198.1875 38.363281 198.972656 C 40.257812 199.753906 42.1875 200.445312 44.148438 201.039062 C 46.109375 201.636719 48.097656 202.132812 50.109375 202.535156 C 52.117188 202.933594 54.144531 203.234375 56.183594 203.433594 C 58.222656 203.636719 60.269531 203.734375 62.320312 203.734375 L 312.703125 203.734375 C 314.753906 203.734375 316.800781 203.636719 318.839844 203.433594 C 320.878906 203.234375 322.90625 202.933594 324.914062 202.535156 C 326.925781 202.132812 328.914062 201.636719 330.875 201.039062 C 332.835938 200.445312 334.765625 199.753906 336.65625 198.972656 C 338.550781 198.1875 340.402344 197.3125 342.210938 196.34375 C 344.019531 195.378906 345.777344 194.324219 347.480469 193.1875 C 349.183594 192.046875 350.828125 190.828125 352.414062 189.527344 C 354 188.226562 355.515625 186.851562 356.964844 185.402344 C 358.414062 183.953125 359.789062 182.433594 361.089844 180.851562 C 362.390625 179.265625 363.613281 177.621094 364.75 175.917969 C 365.890625 174.210938 366.941406 172.457031 367.910156 170.648438 C 368.875 168.839844 369.75 166.988281 370.535156 165.09375 C 371.320312 163.199219 372.007812 161.273438 372.605469 159.3125 C 373.199219 157.347656 373.695312 155.363281 374.097656 153.351562 C 374.496094 151.339844 374.796875 149.316406 375 147.277344 C 375.199219 145.234375 375.300781 143.191406 375.300781 141.140625 C 375.300781 139.089844 375.199219 137.042969 375 135.003906 C 374.796875 132.964844 374.496094 130.9375 374.097656 128.929688 C 373.695312 126.917969 373.199219 124.929688 372.605469 122.96875 C 372.007812 121.007812 371.320312 119.078125 370.535156 117.1875 C 369.75 115.292969 368.875 113.441406 367.910156 111.632812 C 366.941406 109.824219 365.890625 108.066406 364.75 106.363281 C 363.613281 104.660156 362.390625 103.015625 361.089844 101.429688 C 359.789062 99.84375 358.414062 98.328125 356.964844 96.878906 C 355.515625 95.429688 354 94.054688 352.414062 92.753906 C 350.828125 91.453125 349.183594 90.230469 347.480469 89.09375 C 345.777344 87.953125 344.019531 86.902344 342.210938 85.933594 C 340.402344 84.96875 338.550781 84.09375 336.65625 83.308594 C 334.765625 82.523438 332.835938 81.835938 330.875 81.238281 C 328.914062 80.644531 326.925781 80.148438 324.914062 79.746094 C 322.90625 79.347656 320.878906 79.046875 318.839844 78.84375 C 316.800781 78.644531 314.753906 78.542969 312.703125 78.542969 Z M 75.496094 177.378906 L 42.550781 177.378906 C 42.117188 177.378906 41.695312 177.296875 41.292969 177.128906 C 40.886719 176.960938 40.53125 176.722656 40.222656 176.414062 C 39.914062 176.105469 39.675781 175.75 39.507812 175.347656 C 39.339844 174.941406 39.257812 174.523438 39.257812 174.085938 C 39.257812 173.648438 39.339844 173.226562 39.507812 172.824219 C 39.675781 172.421875 39.914062 172.066406 40.222656 171.753906 C 40.53125 171.445312 40.886719 171.207031 41.292969 171.042969 C 41.695312 170.875 42.117188 170.789062 42.550781 170.789062 L 75.496094 170.789062 C 75.933594 170.789062 76.355469 170.875 76.757812 171.042969 C 77.160156 171.207031 77.519531 171.445312 77.828125 171.753906 C 78.136719 172.066406 78.375 172.421875 78.542969 172.824219 C 78.707031 173.226562 78.792969 173.648438 78.792969 174.085938 C 78.792969 174.523438 78.707031 174.941406 78.542969 175.347656 C 78.375 175.75 78.136719 176.105469 77.828125 176.414062 C 77.519531 176.722656 77.160156 176.960938 76.757812 177.128906 C 76.355469 177.296875 75.933594 177.378906 75.496094 177.378906 Z M 101.855469 144.433594 L 68.910156 144.433594 C 68.472656 144.433594 68.050781 144.351562 67.648438 144.183594 C 67.242188 144.015625 66.886719 143.777344 66.578125 143.46875 C 66.269531 143.160156 66.03125 142.804688 65.863281 142.402344 C 65.699219 141.996094 65.613281 141.578125 65.613281 141.140625 C 65.613281 140.703125 65.699219 140.28125 65.863281 139.878906 C 66.03125 139.476562 66.269531 139.121094 66.578125 138.808594 C 66.886719 138.5 67.242188 138.261719 67.648438 138.097656 C 68.050781 137.929688 68.472656 137.84375 68.910156 137.84375 L 101.855469 137.84375 C 102.289062 137.84375 102.710938 137.929688 103.113281 138.097656 C 103.519531 138.261719 103.875 138.5 104.183594 138.808594 C 104.492188 139.121094 104.730469 139.476562 104.898438 139.878906 C 105.066406 140.28125 105.148438 140.703125 105.148438 141.140625 C 105.148438 141.578125 105.066406 141.996094 104.898438 142.402344 C 104.730469 142.804688 104.492188 143.160156 104.183594 143.46875 C 103.875 143.777344 103.519531 144.015625 103.113281 144.183594 C 102.710938 144.351562 102.289062 144.433594 101.855469 144.433594 Z M 128.210938 144.433594 C 127.773438 144.433594 127.351562 144.351562 126.949219 144.183594 C 126.546875 144.015625 126.1875 143.777344 125.878906 143.46875 C 125.570312 143.160156 125.332031 142.804688 125.167969 142.402344 C 125 141.996094 124.914062 141.578125 124.914062 141.140625 C 124.914062 140.703125 125 140.28125 125.167969 139.878906 C 125.332031 139.476562 125.570312 139.121094 125.878906 138.808594 C 126.1875 138.5 126.546875 138.261719 126.949219 138.097656 C 127.351562 137.929688 127.773438 137.84375 128.210938 137.84375 C 128.648438 137.84375 129.066406 137.929688 129.472656 138.097656 C 129.875 138.261719 130.230469 138.5 130.539062 138.808594 C 130.847656 139.121094 131.085938 139.476562 131.253906 139.878906 C 131.421875 140.28125 131.503906 140.703125 131.503906 141.140625 C 131.503906 141.578125 131.421875 141.996094 131.253906 142.402344 C 131.085938 142.804688 130.847656 143.160156 130.539062 143.46875 C 130.230469 143.777344 129.875 144.015625 129.472656 144.183594 C 129.066406 144.351562 128.648438 144.433594 128.210938 144.433594 Z M 187.511719 177.378906 C 186.324219 177.378906 185.140625 177.320312 183.960938 177.207031 C 182.777344 177.089844 181.605469 176.914062 180.441406 176.683594 C 179.277344 176.453125 178.128906 176.164062 176.992188 175.820312 C 175.855469 175.476562 174.738281 175.074219 173.644531 174.621094 C 172.546875 174.167969 171.476562 173.660156 170.429688 173.101562 C 169.382812 172.542969 168.363281 171.933594 167.378906 171.273438 C 166.390625 170.613281 165.4375 169.90625 164.519531 169.152344 C 163.605469 168.402344 162.726562 167.605469 161.886719 166.765625 C 161.046875 165.925781 160.25 165.046875 159.496094 164.128906 C 158.746094 163.210938 158.039062 162.261719 157.378906 161.273438 C 156.71875 160.285156 156.109375 159.269531 155.550781 158.222656 C 154.992188 157.175781 154.484375 156.105469 154.03125 155.007812 C 153.574219 153.910156 153.175781 152.796875 152.832031 151.660156 C 152.488281 150.523438 152.199219 149.375 151.96875 148.210938 C 151.738281 147.046875 151.5625 145.875 151.445312 144.691406 C 151.328125 143.511719 151.273438 142.328125 151.273438 141.140625 C 151.273438 139.953125 151.328125 138.769531 151.445312 137.589844 C 151.5625 136.40625 151.738281 135.234375 151.96875 134.070312 C 152.199219 132.90625 152.488281 131.757812 152.832031 130.621094 C 153.175781 129.484375 153.574219 128.367188 154.03125 127.273438 C 154.484375 126.175781 154.992188 125.101562 155.550781 124.058594 C 156.109375 123.011719 156.71875 121.992188 157.378906 121.007812 C 158.039062 120.019531 158.746094 119.066406 159.496094 118.148438 C 160.25 117.230469 161.046875 116.355469 161.886719 115.515625 C 162.726562 114.675781 163.605469 113.878906 164.519531 113.125 C 165.4375 112.375 166.390625 111.667969 167.378906 111.007812 C 168.363281 110.347656 169.382812 109.738281 170.429688 109.179688 C 171.476562 108.621094 172.546875 108.113281 173.644531 107.660156 C 174.738281 107.203125 175.855469 106.804688 176.992188 106.460938 C 178.128906 106.117188 179.277344 105.828125 180.441406 105.597656 C 181.605469 105.363281 182.777344 105.191406 183.960938 105.074219 C 185.140625 104.957031 186.324219 104.898438 187.511719 104.898438 C 188.699219 104.898438 189.882812 104.957031 191.0625 105.074219 C 192.246094 105.191406 193.417969 105.363281 194.582031 105.597656 C 195.746094 105.828125 196.894531 106.117188 198.03125 106.460938 C 199.167969 106.804688 200.285156 107.203125 201.378906 107.660156 C 202.476562 108.113281 203.546875 108.621094 204.59375 109.179688 C 205.640625 109.738281 206.660156 110.347656 207.644531 111.007812 C 208.632812 111.667969 209.585938 112.375 210.5 113.125 C 211.417969 113.878906 212.296875 114.675781 213.136719 115.515625 C 213.976562 116.355469 214.773438 117.230469 215.523438 118.148438 C 216.277344 119.066406 216.984375 120.019531 217.644531 121.007812 C 218.304688 121.992188 218.914062 123.011719 219.472656 124.058594 C 220.03125 125.101562 220.539062 126.175781 220.992188 127.273438 C 221.445312 128.367188 221.847656 129.484375 222.191406 130.621094 C 222.535156 131.757812 222.824219 132.90625 223.054688 134.070312 C 223.285156 135.234375 223.460938 136.40625 223.578125 137.589844 C 223.691406 138.769531 223.75 139.953125 223.75 141.140625 C 223.75 142.328125 223.691406 143.511719 223.574219 144.691406 C 223.457031 145.871094 223.28125 147.042969 223.046875 148.207031 C 222.816406 149.371094 222.527344 150.519531 222.183594 151.65625 C 221.835938 152.789062 221.4375 153.90625 220.980469 155.003906 C 220.527344 156.097656 220.019531 157.167969 219.460938 158.214844 C 218.902344 159.261719 218.289062 160.277344 217.632812 161.265625 C 216.972656 162.25 216.265625 163.203125 215.511719 164.121094 C 214.761719 165.035156 213.964844 165.914062 213.125 166.753906 C 212.285156 167.59375 211.40625 168.386719 210.492188 169.140625 C 209.574219 169.894531 208.621094 170.601562 207.636719 171.261719 C 206.648438 171.917969 205.632812 172.527344 204.585938 173.089844 C 203.539062 173.648438 202.46875 174.15625 201.375 174.609375 C 200.277344 175.066406 199.160156 175.464844 198.027344 175.808594 C 196.890625 176.15625 195.742188 176.445312 194.578125 176.675781 C 193.414062 176.910156 192.242188 177.085938 191.0625 177.203125 C 189.882812 177.320312 188.699219 177.378906 187.511719 177.378906 Z M 246.8125 144.433594 C 246.375 144.433594 245.957031 144.351562 245.550781 144.183594 C 245.148438 144.015625 244.792969 143.777344 244.484375 143.46875 C 244.175781 143.160156 243.9375 142.804688 243.769531 142.402344 C 243.601562 141.996094 243.519531 141.578125 243.519531 141.140625 C 243.519531 140.703125 243.601562 140.28125 243.769531 139.878906 C 243.9375 139.476562 244.175781 139.121094 244.484375 138.808594 C 244.792969 138.5 245.148438 138.261719 245.550781 138.097656 C 245.957031 137.929688 246.375 137.84375 246.8125 137.84375 C 247.25 137.84375 247.671875 137.929688 248.074219 138.097656 C 248.476562 138.261719 248.832031 138.5 249.144531 138.808594 C 249.453125 139.121094 249.691406 139.476562 249.855469 139.878906 C 250.023438 140.28125 250.109375 140.703125 250.109375 141.140625 C 250.109375 141.578125 250.023438 141.996094 249.855469 142.402344 C 249.691406 142.804688 249.453125 143.160156 249.144531 143.46875 C 248.832031 143.777344 248.476562 144.015625 248.074219 144.183594 C 247.671875 144.351562 247.25 144.433594 246.8125 144.433594 Z M 279.757812 144.433594 C 279.320312 144.433594 278.902344 144.351562 278.496094 144.183594 C 278.09375 144.015625 277.738281 143.777344 277.429688 143.46875 C 277.121094 143.160156 276.882812 142.804688 276.714844 142.402344 C 276.546875 141.996094 276.464844 141.578125 276.464844 141.140625 C 276.464844 140.703125 276.546875 140.28125 276.714844 139.878906 C 276.882812 139.476562 277.121094 139.121094 277.429688 138.808594 C 277.738281 138.5 278.09375 138.261719 278.496094 138.097656 C 278.902344 137.929688 279.320312 137.84375 279.757812 137.84375 C 280.195312 137.84375 280.617188 137.929688 281.019531 138.097656 C 281.421875 138.261719 281.777344 138.5 282.089844 138.808594 C 282.398438 139.121094 282.636719 139.476562 282.800781 139.878906 C 282.96875 140.28125 283.054688 140.703125 283.054688 141.140625 C 283.054688 141.578125 282.96875 141.996094 282.800781 142.402344 C 282.636719 142.804688 282.398438 143.160156 282.089844 143.46875 C 281.777344 143.777344 281.421875 144.015625 281.019531 144.183594 C 280.617188 144.351562 280.195312 144.433594 279.757812 144.433594 Z M 332.472656 177.378906 L 299.527344 177.378906 C 299.089844 177.378906 298.667969 177.296875 298.265625 177.128906 C 297.859375 176.960938 297.503906 176.722656 297.195312 176.414062 C 296.886719 176.105469 296.648438 175.75 296.480469 175.347656 C 296.316406 174.941406 296.230469 174.523438 296.230469 174.085938 C 296.230469 173.648438 296.316406 173.226562 296.480469 172.824219 C 296.648438 172.421875 296.886719 172.066406 297.195312 171.753906 C 297.503906 171.445312 297.859375 171.207031 298.265625 171.042969 C 298.667969 170.875 299.089844 170.789062 299.527344 170.789062 L 332.472656 170.789062 C 332.90625 170.789062 333.328125 170.875 333.730469 171.042969 C 334.136719 171.207031 334.492188 171.445312 334.800781 171.753906 C 335.109375 172.066406 335.347656 172.421875 335.515625 172.824219 C 335.683594 173.226562 335.765625 173.648438 335.765625 174.085938 C 335.765625 174.523438 335.683594 174.941406 335.515625 175.347656 C 335.347656 175.75 335.109375 176.105469 334.800781 176.414062 C 334.492188 176.722656 334.136719 176.960938 333.730469 177.128906 C 333.328125 177.296875 332.90625 177.378906 332.472656 177.378906 Z M 332.472656 177.378906 " fill-opacity="1" fill-rule="nonzero"/></g><path fill="#a60032" d="M 187.511719 111.488281 C 186.539062 111.488281 185.570312 111.535156 184.605469 111.632812 C 183.640625 111.726562 182.679688 111.871094 181.726562 112.058594 C 180.773438 112.25 179.832031 112.484375 178.90625 112.765625 C 177.976562 113.046875 177.0625 113.375 176.164062 113.746094 C 175.265625 114.117188 174.390625 114.53125 173.535156 114.992188 C 172.679688 115.449219 171.847656 115.945312 171.039062 116.484375 C 170.230469 117.027344 169.453125 117.605469 168.703125 118.21875 C 167.949219 118.835938 167.230469 119.488281 166.546875 120.171875 C 165.859375 120.859375 165.207031 121.578125 164.589844 122.328125 C 163.976562 123.082031 163.398438 123.859375 162.859375 124.667969 C 162.316406 125.472656 161.820312 126.304688 161.363281 127.164062 C 160.902344 128.019531 160.488281 128.894531 160.117188 129.792969 C 159.746094 130.691406 159.417969 131.605469 159.136719 132.53125 C 158.855469 133.460938 158.621094 134.402344 158.429688 135.355469 C 158.242188 136.308594 158.097656 137.265625 158.003906 138.234375 C 157.910156 139.199219 157.859375 140.167969 157.859375 141.140625 C 157.859375 142.109375 157.910156 143.078125 158.003906 144.046875 C 158.097656 145.011719 158.242188 145.972656 158.429688 146.925781 C 158.621094 147.878906 158.855469 148.816406 159.136719 149.746094 C 159.417969 150.675781 159.746094 151.589844 160.117188 152.488281 C 160.488281 153.382812 160.902344 154.261719 161.363281 155.117188 C 161.820312 155.972656 162.316406 156.804688 162.859375 157.613281 C 163.398438 158.421875 163.976562 159.199219 164.589844 159.949219 C 165.207031 160.699219 165.859375 161.417969 166.546875 162.105469 C 167.230469 162.792969 167.949219 163.445312 168.703125 164.058594 C 169.453125 164.675781 170.230469 165.253906 171.039062 165.792969 C 171.847656 166.332031 172.679688 166.832031 173.535156 167.289062 C 174.390625 167.746094 175.265625 168.164062 176.164062 168.535156 C 177.0625 168.90625 177.976562 169.230469 178.90625 169.515625 C 179.832031 169.796875 180.773438 170.03125 181.726562 170.222656 C 182.679688 170.410156 183.640625 170.554688 184.605469 170.648438 C 185.570312 170.742188 186.539062 170.789062 187.511719 170.789062 C 188.484375 170.789062 189.453125 170.742188 190.417969 170.648438 C 191.382812 170.554688 192.34375 170.410156 193.296875 170.222656 C 194.25 170.03125 195.1875 169.796875 196.117188 169.515625 C 197.046875 169.230469 197.960938 168.90625 198.859375 168.535156 C 199.753906 168.164062 200.632812 167.746094 201.488281 167.289062 C 202.34375 166.832031 203.175781 166.332031 203.984375 165.792969 C 204.792969 165.253906 205.570312 164.675781 206.320312 164.058594 C 207.074219 163.445312 207.792969 162.792969 208.476562 162.105469 C 209.164062 161.417969 209.816406 160.699219 210.433594 159.949219 C 211.046875 159.199219 211.625 158.421875 212.164062 157.613281 C 212.703125 156.804688 213.203125 155.972656 213.660156 155.117188 C 214.117188 154.261719 214.535156 153.382812 214.90625 152.488281 C 215.277344 151.589844 215.605469 150.675781 215.886719 149.746094 C 216.167969 148.816406 216.402344 147.878906 216.59375 146.925781 C 216.78125 145.972656 216.925781 145.011719 217.019531 144.046875 C 217.113281 143.078125 217.164062 142.109375 217.164062 141.140625 C 217.160156 140.167969 217.113281 139.199219 217.015625 138.234375 C 216.921875 137.269531 216.777344 136.308594 216.585938 135.359375 C 216.398438 134.40625 216.160156 133.464844 215.878906 132.535156 C 215.597656 131.609375 215.269531 130.695312 214.898438 129.796875 C 214.523438 128.902344 214.109375 128.023438 213.652344 127.167969 C 213.195312 126.3125 212.695312 125.480469 212.15625 124.675781 C 211.617188 123.867188 211.039062 123.089844 210.421875 122.339844 C 209.804688 121.589844 209.15625 120.871094 208.46875 120.183594 C 207.78125 119.496094 207.0625 118.84375 206.3125 118.230469 C 205.5625 117.613281 204.785156 117.035156 203.976562 116.496094 C 203.171875 115.957031 202.339844 115.457031 201.480469 115 C 200.625 114.542969 199.75 114.125 198.851562 113.753906 C 197.957031 113.382812 197.042969 113.054688 196.113281 112.773438 C 195.1875 112.492188 194.246094 112.253906 193.292969 112.0625 C 192.34375 111.875 191.382812 111.730469 190.417969 111.636719 C 189.449219 111.539062 188.480469 111.492188 187.511719 111.488281 Z M 187.511719 144.433594 C 187.074219 144.433594 186.65625 144.351562 186.25 144.183594 C 185.847656 144.015625 185.492188 143.777344 185.183594 143.46875 C 184.871094 143.160156 184.636719 142.804688 184.46875 142.402344 C 184.300781 141.996094 184.21875 141.578125 184.21875 141.140625 C 184.21875 140.703125 184.300781 140.28125 184.46875 139.878906 C 184.636719 139.476562 184.871094 139.121094 185.183594 138.808594 C 185.492188 138.5 185.847656 138.261719 186.25 138.097656 C 186.65625 137.929688 187.074219 137.84375 187.511719 137.84375 C 187.949219 137.84375 188.367188 137.929688 188.773438 138.097656 C 189.175781 138.261719 189.53125 138.5 189.839844 138.808594 C 190.148438 139.121094 190.386719 139.476562 190.554688 139.878906 C 190.722656 140.28125 190.804688 140.703125 190.804688 141.140625 C 190.804688 141.578125 190.722656 141.996094 190.554688 142.402344 C 190.386719 142.804688 190.148438 143.160156 189.839844 143.46875 C 189.53125 143.777344 189.175781 144.015625 188.773438 144.183594 C 188.367188 144.351562 187.949219 144.433594 187.511719 144.433594 Z M 187.511719 144.433594 " fill-opacity="1" fill-rule="nonzero"/><g clip-path="url(#66b1e08f7f)"><path fill="#a60032" d="M 85.382812 272.921875 L 85.382812 276.214844 L 289.640625 276.214844 L 289.640625 272.921875 C 289.640625 272.167969 289.601562 271.414062 289.527344 270.660156 C 289.453125 269.910156 289.34375 269.164062 289.195312 268.425781 C 289.046875 267.683594 288.863281 266.953125 288.644531 266.230469 C 288.421875 265.507812 288.167969 264.796875 287.878906 264.101562 C 287.589844 263.402344 287.265625 262.722656 286.910156 262.054688 C 286.554688 261.390625 286.167969 260.742188 285.746094 260.117188 C 285.328125 259.488281 284.878906 258.882812 284.398438 258.296875 C 283.917969 257.714844 283.414062 257.15625 282.878906 256.621094 C 282.34375 256.089844 281.785156 255.582031 281.203125 255.101562 C 280.621094 254.625 280.015625 254.175781 279.386719 253.753906 C 278.757812 253.335938 278.113281 252.945312 277.445312 252.589844 C 276.78125 252.234375 276.097656 251.910156 275.402344 251.621094 C 274.703125 251.332031 273.992188 251.078125 273.273438 250.859375 C 272.550781 250.640625 271.816406 250.457031 271.078125 250.308594 C 270.335938 250.160156 269.589844 250.046875 268.839844 249.972656 C 268.089844 249.898438 267.335938 249.859375 266.582031 249.859375 L 108.441406 249.859375 C 107.6875 249.859375 106.933594 249.898438 106.183594 249.972656 C 105.433594 250.046875 104.6875 250.160156 103.945312 250.308594 C 103.207031 250.457031 102.472656 250.640625 101.75 250.859375 C 101.027344 251.078125 100.320312 251.332031 99.621094 251.621094 C 98.925781 251.910156 98.242188 252.234375 97.578125 252.589844 C 96.910156 252.949219 96.265625 253.335938 95.636719 253.753906 C 95.007812 254.175781 94.402344 254.625 93.820312 255.101562 C 93.238281 255.582031 92.679688 256.089844 92.144531 256.621094 C 91.609375 257.15625 91.105469 257.714844 90.625 258.300781 C 90.144531 258.882812 89.695312 259.488281 89.277344 260.117188 C 88.855469 260.742188 88.46875 261.390625 88.113281 262.054688 C 87.757812 262.722656 87.433594 263.402344 87.144531 264.101562 C 86.855469 264.796875 86.601562 265.507812 86.378906 266.230469 C 86.160156 266.953125 85.976562 267.683594 85.828125 268.425781 C 85.679688 269.164062 85.570312 269.910156 85.496094 270.660156 C 85.417969 271.414062 85.382812 272.167969 85.382812 272.921875 Z M 85.382812 272.921875 " fill-opacity="1" fill-rule="nonzero"/></g><path fill="#a60032" d="M 151.273438 210.324219 L 223.75 210.324219 L 223.75 243.269531 L 151.273438 243.269531 Z M 151.273438 210.324219 " fill-opacity="1" fill-rule="nonzero"/></svg>