<svg xmlns="http://www.w3.org/2000/svg" xmlns:xlink="http://www.w3.org/1999/xlink" width="500" zoomAndPan="magnify" viewBox="0 0 375 374.999991" height="500" preserveAspectRatio="xMidYMid meet" version="1.0"><path fill="#c8effe" d="M 174.90625 361.011719 L 174.6875 361.199219 C 160.511719 373.460938 143.515625 381.78125 125.398438 385.542969 C 146.109375 393.265625 168.523438 397.5 191.925781 397.5 C 233.835938 397.5 272.570312 383.949219 304.011719 361.011719 Z M 174.90625 361.011719 " fill-opacity="1" fill-rule="nonzero"/><path fill="#c8effe" d="M 330.96875 77.433594 L 330.96875 337.144531 C 362.761719 303.152344 382.234375 257.496094 382.234375 207.289062 C 382.234375 157.082031 362.761719 111.429688 330.96875 77.433594 Z M 330.96875 77.433594 " fill-opacity="1" fill-rule="nonzero"/><path fill="#c8effe" d="M 52.46875 181.710938 L 52.886719 181.492188 L 52.886719 77.433594 C 21.089844 111.429688 1.617188 157.082031 1.617188 207.289062 C 1.617188 216.25 2.253906 225.0625 3.453125 233.691406 C 13.304688 211.773438 30.308594 193.332031 52.46875 181.710938 Z M 52.46875 181.710938 " fill-opacity="1" fill-rule="nonzero"/><path fill="#99e6fc" d="M 137.0625 361.011719 C 126.496094 365.335938 115.042969 367.628906 103.195312 367.628906 C 54.042969 367.628906 14.058594 327.664062 14.058594 278.535156 C 14.058594 249.292969 28.449219 221.882812 52.550781 205.21875 L 52.886719 204.988281 L 52.886719 180.605469 C 17.367188 198.871094 -6.925781 235.867188 -6.925781 278.535156 C -6.925781 339.324219 42.378906 388.601562 103.195312 388.601562 C 131.15625 388.601562 156.671875 378.175781 176.09375 361.011719 Z M 137.0625 361.011719 " fill-opacity="1" fill-rule="nonzero"/><path fill="#ffffff" d="M 325.917969 79.191406 L 57.933594 79.191406 L 52.109375 79.964844 L 52.109375 205.570312 C 66.585938 195.414062 84.207031 189.441406 103.195312 189.441406 C 142.003906 189.441406 175.09375 214.363281 187.304688 249.027344 L 228.808594 249.027344 L 228.808594 213.171875 C 228.808594 208.945312 232.375 206.332031 235.679688 206.332031 C 237.300781 206.332031 238.828125 206.90625 240.097656 208 L 315.871094 273.292969 C 317.375 274.589844 318.238281 276.472656 318.238281 278.460938 C 318.238281 280.449219 317.375 282.332031 315.871094 283.632812 L 291.84375 304.335938 L 331.746094 304.335938 L 331.746094 79.964844 Z M 325.917969 79.191406 " fill-opacity="1" fill-rule="nonzero"/><path fill="#f2fbff" d="M 52.109375 205.570312 C 66.234375 195.660156 83.359375 189.75 101.820312 189.46875 L 101.820312 79.964844 L 52.109375 79.964844 Z M 52.109375 205.570312 " fill-opacity="1" fill-rule="nonzero"/><path fill="#a8d3d8" d="M 103.195312 189.445312 C 110.066406 189.445312 116.753906 190.226562 123.183594 191.703125 L 123.183594 168.472656 C 123.183594 165.042969 120.402344 162.261719 116.96875 162.261719 L 87.453125 162.261719 C 84.019531 162.261719 81.238281 165.042969 81.238281 168.472656 L 81.238281 192.183594 C 88.265625 190.394531 95.621094 189.445312 103.195312 189.445312 Z M 103.195312 189.445312 " fill-opacity="1" fill-rule="nonzero"/><path fill="#8ebac5" d="M 100.269531 188.71875 L 100.269531 168.472656 C 100.269531 165.042969 103.050781 162.261719 106.484375 162.261719 L 87.453125 162.261719 C 84.019531 162.261719 81.238281 165.042969 81.238281 168.472656 L 81.238281 191.371094 C 87.355469 189.835938 93.722656 188.929688 100.269531 188.71875 Z M 100.269531 188.71875 " fill-opacity="1" fill-rule="nonzero"/><path fill="#a8d3d8" d="M 152.246094 204.183594 L 176.78125 204.183594 C 180.210938 204.183594 182.996094 201.402344 182.996094 197.972656 L 182.996094 168.472656 C 182.996094 165.042969 180.210938 162.261719 176.78125 162.261719 L 147.261719 162.261719 C 143.832031 162.261719 141.050781 165.042969 141.050781 168.472656 L 141.050781 197.886719 C 144.945312 199.722656 148.683594 201.828125 152.246094 204.183594 Z M 152.246094 204.183594 " fill-opacity="1" fill-rule="nonzero"/><path fill="#8ebac5" d="M 153.714844 204.183594 L 166.292969 204.183594 C 162.863281 204.183594 160.078125 201.402344 160.078125 197.972656 L 160.078125 168.472656 C 160.078125 165.042969 162.863281 162.261719 166.292969 162.261719 L 147.261719 162.261719 C 143.832031 162.261719 141.050781 165.042969 141.050781 168.472656 L 141.050781 197.003906 C 145.476562 199.058594 149.710938 201.464844 153.714844 204.183594 Z M 153.714844 204.183594 " fill-opacity="1" fill-rule="nonzero"/><path fill="#a8d3d8" d="M 182.996094 238.867188 L 182.996094 227.476562 C 182.996094 224.046875 180.210938 221.265625 176.78125 221.265625 L 171.417969 221.265625 C 175.9375 226.632812 179.832031 232.535156 182.996094 238.867188 Z M 182.996094 238.867188 " fill-opacity="1" fill-rule="nonzero"/><path fill="#dff6fd" d="M 259.40625 332.285156 L 240.097656 348.921875 C 238.828125 350.015625 237.300781 350.59375 235.679688 350.59375 C 232.375 350.59375 228.808594 347.980469 228.808594 343.753906 L 228.808594 332.285156 L 174.285156 332.285156 L 174.054688 332.589844 C 163.785156 346.015625 150.316406 355.984375 135.101562 361.789062 L 302.945312 361.789062 C 313.386719 354.277344 323.035156 345.734375 331.746094 336.3125 L 331.746094 332.285156 Z M 259.40625 332.285156 " fill-opacity="1" fill-rule="nonzero"/><path fill="#f2fbff" d="M 187.195312 308.410156 C 183.972656 317.453125 179.367188 325.734375 173.679688 333.0625 L 228.808594 333.0625 L 228.808594 307.894531 L 187.378906 307.894531 Z M 187.195312 308.410156 " fill-opacity="1" fill-rule="nonzero"/><path fill="#f2fbff" d="M 292.742188 303.558594 L 258.503906 333.0625 L 331.746094 333.0625 L 331.746094 303.558594 Z M 292.742188 303.558594 " fill-opacity="1" fill-rule="nonzero"/><path fill="#fd6930" d="M 331.746094 79.964844 L 52.109375 79.964844 L 52.109375 28.726562 C 52.109375 20.148438 59.0625 13.199219 67.644531 13.199219 L 316.210938 13.199219 C 324.789062 13.199219 331.746094 20.148438 331.746094 28.726562 Z M 331.746094 79.964844 " fill-opacity="1" fill-rule="nonzero"/><path fill="#fd5426" d="M 117.355469 13.199219 L 67.644531 13.199219 C 59.0625 13.199219 52.109375 20.148438 52.109375 28.726562 L 52.109375 79.964844 L 101.820312 79.964844 L 101.820312 28.726562 C 101.820312 20.148438 108.777344 13.199219 117.355469 13.199219 Z M 117.355469 13.199219 " fill-opacity="1" fill-rule="nonzero"/><path fill="#a8d3d8" d="M 116.96875 145.179688 L 87.453125 145.179688 C 84.019531 145.179688 81.238281 142.398438 81.238281 138.96875 L 81.238281 109.46875 C 81.238281 106.039062 84.019531 103.257812 87.453125 103.257812 L 116.96875 103.257812 C 120.402344 103.257812 123.183594 106.039062 123.183594 109.46875 L 123.183594 138.96875 C 123.183594 142.398438 120.402344 145.179688 116.96875 145.179688 Z M 116.96875 145.179688 " fill-opacity="1" fill-rule="nonzero"/><path fill="#8ebac5" d="M 100.269531 138.96875 L 100.269531 109.46875 C 100.269531 106.039062 103.050781 103.257812 106.484375 103.257812 L 87.453125 103.257812 C 84.019531 103.257812 81.238281 106.039062 81.238281 109.46875 L 81.238281 138.96875 C 81.238281 142.398438 84.019531 145.179688 87.453125 145.179688 L 106.484375 145.179688 C 103.050781 145.179688 100.269531 142.398438 100.269531 138.96875 Z M 100.269531 138.96875 " fill-opacity="1" fill-rule="nonzero"/><path fill="#a8d3d8" d="M 176.78125 145.179688 L 147.261719 145.179688 C 143.832031 145.179688 141.050781 142.398438 141.050781 138.96875 L 141.050781 109.46875 C 141.050781 106.039062 143.832031 103.257812 147.261719 103.257812 L 176.78125 103.257812 C 180.210938 103.257812 182.996094 106.039062 182.996094 109.46875 L 182.996094 138.96875 C 182.996094 142.398438 180.210938 145.179688 176.78125 145.179688 Z M 176.78125 145.179688 " fill-opacity="1" fill-rule="nonzero"/><path fill="#a8d3d8" d="M 236.589844 145.179688 L 207.074219 145.179688 C 203.640625 145.179688 200.859375 142.398438 200.859375 138.96875 L 200.859375 109.46875 C 200.859375 106.039062 203.640625 103.257812 207.074219 103.257812 L 236.589844 103.257812 C 240.023438 103.257812 242.804688 106.039062 242.804688 109.46875 L 242.804688 138.96875 C 242.804688 142.398438 240.023438 145.179688 236.589844 145.179688 Z M 236.589844 145.179688 " fill-opacity="1" fill-rule="nonzero"/><path fill="#a8d3d8" d="M 296.402344 145.179688 L 266.886719 145.179688 C 263.453125 145.179688 260.671875 142.398438 260.671875 138.96875 L 260.671875 109.46875 C 260.671875 106.039062 263.453125 103.257812 266.886719 103.257812 L 296.402344 103.257812 C 299.835938 103.257812 302.617188 106.039062 302.617188 109.46875 L 302.617188 138.96875 C 302.617188 142.398438 299.835938 145.179688 296.402344 145.179688 Z M 296.402344 145.179688 " fill-opacity="1" fill-rule="nonzero"/><path fill="#a8d3d8" d="M 236.589844 204.183594 L 207.074219 204.183594 C 203.640625 204.183594 200.859375 201.402344 200.859375 197.972656 L 200.859375 168.472656 C 200.859375 165.042969 203.640625 162.261719 207.074219 162.261719 L 236.589844 162.261719 C 240.023438 162.261719 242.804688 165.042969 242.804688 168.472656 L 242.804688 197.972656 C 242.804688 201.402344 240.023438 204.183594 236.589844 204.183594 Z M 236.589844 204.183594 " fill-opacity="1" fill-rule="nonzero"/><path fill="#a8d3d8" d="M 296.402344 204.183594 L 266.886719 204.183594 C 263.453125 204.183594 260.671875 201.402344 260.671875 197.972656 L 260.671875 168.472656 C 260.671875 165.042969 263.453125 162.261719 266.886719 162.261719 L 296.402344 162.261719 C 299.835938 162.261719 302.617188 165.042969 302.617188 168.472656 L 302.617188 197.972656 C 302.617188 201.402344 299.835938 204.183594 296.402344 204.183594 Z M 296.402344 204.183594 " fill-opacity="1" fill-rule="nonzero"/><path fill="#a8d3d8" d="M 228.808594 249.03125 L 228.808594 221.265625 L 207.074219 221.265625 C 203.640625 221.265625 200.859375 224.046875 200.859375 227.476562 L 200.859375 249.03125 Z M 228.808594 249.03125 " fill-opacity="1" fill-rule="nonzero"/><path fill="#8ebac5" d="M 219.890625 248.253906 L 219.890625 227.476562 C 219.890625 224.046875 222.671875 221.265625 226.105469 221.265625 L 207.074219 221.265625 C 203.640625 221.265625 200.859375 224.046875 200.859375 227.476562 L 200.859375 248.253906 Z M 219.890625 248.253906 " fill-opacity="1" fill-rule="nonzero"/><path fill="#a8d3d8" d="M 301.324219 260.761719 C 302.132812 259.710938 302.617188 258.402344 302.617188 256.976562 L 302.617188 227.476562 C 302.617188 224.046875 299.835938 221.265625 296.402344 221.265625 L 266.886719 221.265625 C 263.996094 221.265625 261.574219 223.238281 260.878906 225.910156 Z M 301.324219 260.761719 " fill-opacity="1" fill-rule="nonzero"/><path fill="#8ebac5" d="M 279.703125 241.105469 L 279.703125 227.476562 C 279.703125 224.046875 282.484375 221.265625 285.917969 221.265625 L 266.886719 221.265625 C 264.292969 221.265625 262.070312 222.855469 261.140625 225.109375 Z M 279.703125 241.105469 " fill-opacity="1" fill-rule="nonzero"/><path fill="#00f2a6" d="M 316.375 272.707031 L 240.605469 207.414062 C 235.675781 203.167969 228.03125 206.667969 228.03125 213.171875 L 228.03125 248.253906 L 187.03125 248.253906 C 190.460938 257.710938 192.335938 267.910156 192.335938 278.535156 C 192.335938 289.109375 190.480469 299.253906 187.082031 308.671875 L 228.03125 308.671875 L 228.03125 343.753906 C 228.03125 350.257812 235.675781 353.757812 240.605469 349.511719 L 316.375 284.21875 C 319.894531 281.1875 319.894531 275.738281 316.375 272.707031 Z M 316.375 272.707031 " fill-opacity="1" fill-rule="nonzero"/><path fill="#05e39c" d="M 240.605469 233.992188 L 307.636719 291.753906 L 316.378906 284.222656 C 319.898438 281.1875 319.898438 275.738281 316.378906 272.707031 L 240.605469 207.414062 C 235.675781 203.167969 228.03125 206.667969 228.03125 213.171875 L 228.03125 239.75 C 228.03125 233.246094 235.675781 229.746094 240.605469 233.992188 Z M 240.605469 233.992188 " fill-opacity="1" fill-rule="nonzero"/><path fill="#05e39c" d="M 228.03125 267.070312 L 228.03125 248.253906 L 187.03125 248.253906 C 190.0625 256.605469 191.871094 265.539062 192.253906 274.832031 L 220.265625 274.832031 C 224.554688 274.832031 228.03125 271.355469 228.03125 267.070312 Z M 228.03125 267.070312 " fill-opacity="1" fill-rule="nonzero"/><path fill="#ef4424" d="M 99.191406 42.375 C 99.191406 43.179688 99.113281 43.976562 98.953125 44.765625 C 98.796875 45.558594 98.5625 46.324219 98.253906 47.070312 C 97.945312 47.8125 97.570312 48.519531 97.121094 49.191406 C 96.671875 49.859375 96.164062 50.480469 95.59375 51.050781 C 95.023438 51.621094 94.402344 52.128906 93.734375 52.578125 C 93.0625 53.023438 92.355469 53.402344 91.609375 53.710938 C 90.867188 54.019531 90.097656 54.25 89.308594 54.410156 C 88.515625 54.566406 87.71875 54.644531 86.914062 54.644531 C 86.105469 54.644531 85.308594 54.566406 84.515625 54.410156 C 83.726562 54.25 82.960938 54.019531 82.214844 53.710938 C 81.46875 53.402344 80.761719 53.023438 80.089844 52.578125 C 79.421875 52.128906 78.800781 51.621094 78.230469 51.050781 C 77.660156 50.480469 77.152344 49.859375 76.703125 49.191406 C 76.257812 48.519531 75.878906 47.8125 75.570312 47.070312 C 75.261719 46.324219 75.027344 45.558594 74.871094 44.765625 C 74.714844 43.976562 74.636719 43.179688 74.636719 42.375 C 74.636719 41.566406 74.714844 40.769531 74.871094 39.980469 C 75.027344 39.1875 75.261719 38.421875 75.570312 37.675781 C 75.878906 36.933594 76.257812 36.226562 76.703125 35.554688 C 77.152344 34.886719 77.660156 34.265625 78.230469 33.695312 C 78.800781 33.125 79.421875 32.617188 80.089844 32.171875 C 80.761719 31.722656 81.46875 31.34375 82.214844 31.035156 C 82.960938 30.726562 83.726562 30.496094 84.515625 30.335938 C 85.308594 30.179688 86.105469 30.101562 86.914062 30.101562 C 87.71875 30.101562 88.515625 30.179688 89.308594 30.335938 C 90.097656 30.496094 90.867188 30.726562 91.609375 31.035156 C 92.355469 31.34375 93.0625 31.722656 93.734375 32.171875 C 94.402344 32.617188 95.023438 33.125 95.59375 33.695312 C 96.164062 34.265625 96.671875 34.886719 97.121094 35.554688 C 97.570312 36.226562 97.945312 36.933594 98.253906 37.675781 C 98.5625 38.421875 98.796875 39.1875 98.953125 39.980469 C 99.113281 40.769531 99.191406 41.566406 99.191406 42.375 Z M 99.191406 42.375 " fill-opacity="1" fill-rule="nonzero"/><path fill="#a8d3d8" d="M 88.855469 43.949219 L 84.972656 43.949219 C 82.828125 43.949219 81.085938 42.210938 81.085938 40.070312 L 81.085938 3.882812 C 81.085938 1.738281 82.828125 0 84.972656 0 L 88.855469 0 C 91 0 92.738281 1.738281 92.738281 3.882812 L 92.738281 40.070312 C 92.738281 42.214844 91 43.949219 88.855469 43.949219 Z M 88.855469 43.949219 " fill-opacity="1" fill-rule="nonzero"/><path fill="#ef4424" d="M 134.195312 42.375 C 134.195312 43.179688 134.117188 43.976562 133.960938 44.765625 C 133.800781 45.558594 133.570312 46.324219 133.261719 47.070312 C 132.953125 47.8125 132.574219 48.519531 132.125 49.191406 C 131.679688 49.859375 131.167969 50.480469 130.597656 51.050781 C 130.03125 51.621094 129.410156 52.128906 128.738281 52.578125 C 128.070312 53.023438 127.359375 53.402344 126.617188 53.710938 C 125.871094 54.019531 125.105469 54.25 124.3125 54.410156 C 123.523438 54.566406 122.722656 54.644531 121.917969 54.644531 C 121.113281 54.644531 120.3125 54.566406 119.523438 54.410156 C 118.730469 54.25 117.964844 54.019531 117.21875 53.710938 C 116.472656 53.402344 115.765625 53.023438 115.097656 52.578125 C 114.425781 52.128906 113.804688 51.621094 113.234375 51.050781 C 112.667969 50.480469 112.15625 49.859375 111.710938 49.191406 C 111.261719 48.519531 110.882812 47.8125 110.574219 47.070312 C 110.265625 46.324219 110.035156 45.558594 109.875 44.765625 C 109.71875 43.976562 109.640625 43.179688 109.640625 42.375 C 109.640625 41.566406 109.71875 40.769531 109.875 39.980469 C 110.035156 39.1875 110.265625 38.421875 110.574219 37.675781 C 110.882812 36.933594 111.261719 36.226562 111.710938 35.554688 C 112.15625 34.886719 112.667969 34.265625 113.234375 33.695312 C 113.804688 33.125 114.425781 32.617188 115.097656 32.171875 C 115.765625 31.722656 116.472656 31.34375 117.21875 31.035156 C 117.964844 30.726562 118.730469 30.496094 119.523438 30.335938 C 120.3125 30.179688 121.113281 30.101562 121.917969 30.101562 C 122.722656 30.101562 123.523438 30.179688 124.3125 30.335938 C 125.105469 30.496094 125.871094 30.726562 126.617188 31.035156 C 127.359375 31.34375 128.070312 31.722656 128.738281 32.171875 C 129.410156 32.617188 130.03125 33.125 130.597656 33.695312 C 131.167969 34.265625 131.679688 34.886719 132.125 35.554688 C 132.574219 36.226562 132.953125 36.933594 133.261719 37.675781 C 133.570312 38.421875 133.800781 39.1875 133.960938 39.980469 C 134.117188 40.769531 134.195312 41.566406 134.195312 42.375 Z M 134.195312 42.375 " fill-opacity="1" fill-rule="nonzero"/><path fill="#a8d3d8" d="M 123.859375 43.949219 L 119.976562 43.949219 C 117.832031 43.949219 116.09375 42.210938 116.09375 40.070312 L 116.09375 3.882812 C 116.09375 1.738281 117.832031 0 119.976562 0 L 123.859375 0 C 126.003906 0 127.742188 1.738281 127.742188 3.882812 L 127.742188 40.070312 C 127.742188 42.214844 126.003906 43.949219 123.859375 43.949219 Z M 123.859375 43.949219 " fill-opacity="1" fill-rule="nonzero"/><path fill="#ef4424" d="M 169.199219 42.375 C 169.199219 43.179688 169.121094 43.976562 168.964844 44.765625 C 168.804688 45.558594 168.574219 46.324219 168.265625 47.070312 C 167.957031 47.8125 167.578125 48.519531 167.128906 49.191406 C 166.683594 49.859375 166.171875 50.480469 165.605469 51.050781 C 165.035156 51.621094 164.414062 52.128906 163.742188 52.578125 C 163.074219 53.023438 162.367188 53.402344 161.621094 53.710938 C 160.875 54.019531 160.109375 54.25 159.316406 54.410156 C 158.527344 54.566406 157.726562 54.644531 156.921875 54.644531 C 156.117188 54.644531 155.316406 54.566406 154.527344 54.410156 C 153.734375 54.25 152.96875 54.019531 152.222656 53.710938 C 151.480469 53.402344 150.769531 53.023438 150.101562 52.578125 C 149.429688 52.128906 148.8125 51.621094 148.242188 51.050781 C 147.671875 50.480469 147.160156 49.859375 146.714844 49.191406 C 146.265625 48.519531 145.886719 47.8125 145.578125 47.070312 C 145.269531 46.324219 145.039062 45.558594 144.878906 44.765625 C 144.722656 43.976562 144.644531 43.179688 144.644531 42.375 C 144.644531 41.566406 144.722656 40.769531 144.878906 39.980469 C 145.039062 39.1875 145.269531 38.421875 145.578125 37.675781 C 145.886719 36.933594 146.265625 36.226562 146.714844 35.554688 C 147.160156 34.886719 147.671875 34.265625 148.242188 33.695312 C 148.8125 33.125 149.429688 32.617188 150.101562 32.171875 C 150.769531 31.722656 151.480469 31.34375 152.222656 31.035156 C 152.96875 30.726562 153.734375 30.496094 154.527344 30.335938 C 155.316406 30.179688 156.117188 30.101562 156.921875 30.101562 C 157.726562 30.101562 158.527344 30.179688 159.316406 30.335938 C 160.109375 30.496094 160.875 30.726562 161.621094 31.035156 C 162.367188 31.34375 163.074219 31.722656 163.742188 32.171875 C 164.414062 32.617188 165.035156 33.125 165.605469 33.695312 C 166.171875 34.265625 166.683594 34.886719 167.128906 35.554688 C 167.578125 36.226562 167.957031 36.933594 168.265625 37.675781 C 168.574219 38.421875 168.804688 39.1875 168.964844 39.980469 C 169.121094 40.769531 169.199219 41.566406 169.199219 42.375 Z M 169.199219 42.375 " fill-opacity="1" fill-rule="nonzero"/><path fill="#a8d3d8" d="M 158.863281 43.949219 L 154.980469 43.949219 C 152.835938 43.949219 151.097656 42.210938 151.097656 40.070312 L 151.097656 3.882812 C 151.097656 1.738281 152.835938 0 154.980469 0 L 158.863281 0 C 161.007812 0 162.75 1.738281 162.75 3.882812 L 162.75 40.070312 C 162.75 42.214844 161.007812 43.949219 158.863281 43.949219 Z M 158.863281 43.949219 " fill-opacity="1" fill-rule="nonzero"/><path fill="#ef4424" d="M 204.203125 42.375 C 204.203125 43.179688 204.125 43.976562 203.96875 44.765625 C 203.8125 45.558594 203.578125 46.324219 203.269531 47.070312 C 202.960938 47.8125 202.582031 48.519531 202.136719 49.191406 C 201.6875 49.859375 201.179688 50.480469 200.609375 51.050781 C 200.039062 51.621094 199.417969 52.128906 198.75 52.578125 C 198.078125 53.023438 197.371094 53.402344 196.625 53.710938 C 195.882812 54.019531 195.113281 54.25 194.324219 54.410156 C 193.53125 54.566406 192.734375 54.644531 191.925781 54.644531 C 191.121094 54.644531 190.324219 54.566406 189.53125 54.410156 C 188.742188 54.25 187.972656 54.019531 187.230469 53.710938 C 186.484375 53.402344 185.777344 53.023438 185.105469 52.578125 C 184.4375 52.128906 183.816406 51.621094 183.246094 51.050781 C 182.675781 50.480469 182.167969 49.859375 181.71875 49.191406 C 181.269531 48.519531 180.894531 47.8125 180.585938 47.070312 C 180.277344 46.324219 180.042969 45.558594 179.886719 44.765625 C 179.726562 43.976562 179.648438 43.179688 179.648438 42.375 C 179.648438 41.566406 179.726562 40.769531 179.886719 39.980469 C 180.042969 39.1875 180.277344 38.421875 180.585938 37.675781 C 180.894531 36.933594 181.269531 36.226562 181.71875 35.554688 C 182.167969 34.886719 182.675781 34.265625 183.246094 33.695312 C 183.816406 33.125 184.4375 32.617188 185.105469 32.171875 C 185.777344 31.722656 186.484375 31.34375 187.230469 31.035156 C 187.972656 30.726562 188.742188 30.496094 189.53125 30.335938 C 190.324219 30.179688 191.121094 30.101562 191.925781 30.101562 C 192.734375 30.101562 193.53125 30.179688 194.324219 30.335938 C 195.113281 30.496094 195.882812 30.726562 196.625 31.035156 C 197.371094 31.34375 198.078125 31.722656 198.75 32.171875 C 199.417969 32.617188 200.039062 33.125 200.609375 33.695312 C 201.179688 34.265625 201.6875 34.886719 202.136719 35.554688 C 202.582031 36.226562 202.960938 36.933594 203.269531 37.675781 C 203.578125 38.421875 203.8125 39.1875 203.96875 39.980469 C 204.125 40.769531 204.203125 41.566406 204.203125 42.375 Z M 204.203125 42.375 " fill-opacity="1" fill-rule="nonzero"/><path fill="#a8d3d8" d="M 193.871094 43.949219 L 189.984375 43.949219 C 187.839844 43.949219 186.101562 42.210938 186.101562 40.070312 L 186.101562 3.882812 C 186.101562 1.738281 187.839844 0 189.984375 0 L 193.871094 0 C 196.015625 0 197.753906 1.738281 197.753906 3.882812 L 197.753906 40.070312 C 197.753906 42.214844 196.015625 43.949219 193.871094 43.949219 Z M 193.871094 43.949219 " fill-opacity="1" fill-rule="nonzero"/><path fill="#ef4424" d="M 239.210938 42.375 C 239.210938 43.179688 239.132812 43.976562 238.972656 44.765625 C 238.816406 45.558594 238.582031 46.324219 238.273438 47.070312 C 237.96875 47.8125 237.589844 48.519531 237.140625 49.191406 C 236.691406 49.859375 236.183594 50.480469 235.613281 51.050781 C 235.042969 51.621094 234.421875 52.128906 233.753906 52.578125 C 233.082031 53.023438 232.375 53.402344 231.628906 53.710938 C 230.886719 54.019531 230.117188 54.25 229.328125 54.410156 C 228.535156 54.566406 227.738281 54.644531 226.933594 54.644531 C 226.125 54.644531 225.328125 54.566406 224.535156 54.410156 C 223.746094 54.25 222.980469 54.019531 222.234375 53.710938 C 221.488281 53.402344 220.78125 53.023438 220.109375 52.578125 C 219.441406 52.128906 218.820312 51.621094 218.25 51.050781 C 217.679688 50.480469 217.171875 49.859375 216.722656 49.191406 C 216.277344 48.519531 215.898438 47.8125 215.589844 47.070312 C 215.28125 46.324219 215.046875 45.558594 214.890625 44.765625 C 214.734375 43.976562 214.65625 43.179688 214.65625 42.375 C 214.65625 41.566406 214.734375 40.769531 214.890625 39.980469 C 215.046875 39.1875 215.28125 38.421875 215.589844 37.675781 C 215.898438 36.933594 216.277344 36.226562 216.722656 35.554688 C 217.171875 34.886719 217.679688 34.265625 218.25 33.695312 C 218.820312 33.125 219.441406 32.617188 220.109375 32.171875 C 220.78125 31.722656 221.488281 31.34375 222.234375 31.035156 C 222.980469 30.726562 223.746094 30.496094 224.535156 30.335938 C 225.328125 30.179688 226.125 30.101562 226.933594 30.101562 C 227.738281 30.101562 228.535156 30.179688 229.328125 30.335938 C 230.117188 30.496094 230.886719 30.726562 231.628906 31.035156 C 232.375 31.34375 233.082031 31.722656 233.753906 32.171875 C 234.421875 32.617188 235.042969 33.125 235.613281 33.695312 C 236.183594 34.265625 236.691406 34.886719 237.140625 35.554688 C 237.589844 36.226562 237.96875 36.933594 238.273438 37.675781 C 238.582031 38.421875 238.816406 39.1875 238.972656 39.980469 C 239.132812 40.769531 239.210938 41.566406 239.210938 42.375 Z M 239.210938 42.375 " fill-opacity="1" fill-rule="nonzero"/><path fill="#a8d3d8" d="M 228.875 43.949219 L 224.988281 43.949219 C 222.84375 43.949219 221.105469 42.210938 221.105469 40.070312 L 221.105469 3.882812 C 221.105469 1.738281 222.84375 0 224.988281 0 L 228.875 0 C 231.019531 0 232.757812 1.738281 232.757812 3.882812 L 232.757812 40.070312 C 232.757812 42.214844 231.019531 43.949219 228.875 43.949219 Z M 228.875 43.949219 " fill-opacity="1" fill-rule="nonzero"/><path fill="#ef4424" d="M 274.214844 42.375 C 274.214844 43.179688 274.136719 43.976562 273.976562 44.765625 C 273.820312 45.558594 273.589844 46.324219 273.28125 47.070312 C 272.972656 47.8125 272.59375 48.519531 272.144531 49.191406 C 271.695312 49.859375 271.1875 50.480469 270.617188 51.050781 C 270.046875 51.621094 269.429688 52.128906 268.757812 52.578125 C 268.085938 53.023438 267.378906 53.402344 266.636719 53.710938 C 265.890625 54.019531 265.121094 54.25 264.332031 54.410156 C 263.542969 54.566406 262.742188 54.644531 261.9375 54.644531 C 261.128906 54.644531 260.332031 54.566406 259.542969 54.410156 C 258.75 54.25 257.984375 54.019531 257.238281 53.710938 C 256.492188 53.402344 255.785156 53.023438 255.117188 52.578125 C 254.445312 52.128906 253.824219 51.621094 253.253906 51.050781 C 252.683594 50.480469 252.175781 49.859375 251.726562 49.191406 C 251.28125 48.519531 250.902344 47.8125 250.59375 47.070312 C 250.285156 46.324219 250.050781 45.558594 249.894531 44.765625 C 249.738281 43.976562 249.660156 43.179688 249.660156 42.375 C 249.660156 41.566406 249.738281 40.769531 249.894531 39.980469 C 250.050781 39.1875 250.285156 38.421875 250.59375 37.675781 C 250.902344 36.933594 251.28125 36.226562 251.726562 35.554688 C 252.175781 34.886719 252.683594 34.265625 253.253906 33.695312 C 253.824219 33.125 254.445312 32.617188 255.117188 32.171875 C 255.785156 31.722656 256.492188 31.34375 257.238281 31.035156 C 257.984375 30.726562 258.75 30.496094 259.542969 30.335938 C 260.332031 30.179688 261.128906 30.101562 261.9375 30.101562 C 262.742188 30.101562 263.542969 30.179688 264.332031 30.335938 C 265.121094 30.496094 265.890625 30.726562 266.636719 31.035156 C 267.378906 31.34375 268.085938 31.722656 268.757812 32.171875 C 269.429688 32.617188 270.046875 33.125 270.617188 33.695312 C 271.1875 34.265625 271.695312 34.886719 272.144531 35.554688 C 272.59375 36.226562 272.972656 36.933594 273.28125 37.675781 C 273.589844 38.421875 273.820312 39.1875 273.976562 39.980469 C 274.136719 40.769531 274.214844 41.566406 274.214844 42.375 Z M 274.214844 42.375 " fill-opacity="1" fill-rule="nonzero"/><path fill="#a8d3d8" d="M 263.878906 43.949219 L 259.996094 43.949219 C 257.851562 43.949219 256.109375 42.210938 256.109375 40.070312 L 256.109375 3.882812 C 256.109375 1.738281 257.851562 0 259.996094 0 L 263.878906 0 C 266.023438 0 267.761719 1.738281 267.761719 3.882812 L 267.761719 40.070312 C 267.761719 42.214844 266.023438 43.949219 263.878906 43.949219 Z M 263.878906 43.949219 " fill-opacity="1" fill-rule="nonzero"/><path fill="#ef4424" d="M 309.21875 42.375 C 309.21875 43.179688 309.140625 43.976562 308.984375 44.765625 C 308.824219 45.558594 308.59375 46.324219 308.285156 47.070312 C 307.976562 47.8125 307.597656 48.519531 307.148438 49.191406 C 306.703125 49.859375 306.195312 50.480469 305.625 51.050781 C 305.054688 51.621094 304.433594 52.128906 303.761719 52.578125 C 303.09375 53.023438 302.386719 53.402344 301.640625 53.710938 C 300.894531 54.019531 300.128906 54.25 299.335938 54.410156 C 298.546875 54.566406 297.746094 54.644531 296.941406 54.644531 C 296.136719 54.644531 295.335938 54.566406 294.546875 54.410156 C 293.753906 54.25 292.988281 54.019531 292.242188 53.710938 C 291.5 53.402344 290.789062 53.023438 290.121094 52.578125 C 289.449219 52.128906 288.832031 51.621094 288.261719 51.050781 C 287.691406 50.480469 287.179688 49.859375 286.734375 49.191406 C 286.285156 48.519531 285.90625 47.8125 285.597656 47.070312 C 285.289062 46.324219 285.058594 45.558594 284.898438 44.765625 C 284.742188 43.976562 284.664062 43.179688 284.664062 42.375 C 284.664062 41.566406 284.742188 40.769531 284.898438 39.980469 C 285.058594 39.1875 285.289062 38.421875 285.597656 37.675781 C 285.90625 36.933594 286.285156 36.226562 286.734375 35.554688 C 287.179688 34.886719 287.691406 34.265625 288.261719 33.695312 C 288.832031 33.125 289.449219 32.617188 290.121094 32.171875 C 290.789062 31.722656 291.5 31.34375 292.242188 31.035156 C 292.988281 30.726562 293.753906 30.496094 294.546875 30.335938 C 295.335938 30.179688 296.136719 30.101562 296.941406 30.101562 C 297.746094 30.101562 298.546875 30.179688 299.335938 30.335938 C 300.128906 30.496094 300.894531 30.726562 301.640625 31.035156 C 302.386719 31.34375 303.09375 31.722656 303.761719 32.171875 C 304.433594 32.617188 305.054688 33.125 305.625 33.695312 C 306.195312 34.265625 306.703125 34.886719 307.148438 35.554688 C 307.597656 36.226562 307.976562 36.933594 308.285156 37.675781 C 308.59375 38.421875 308.824219 39.1875 308.984375 39.980469 C 309.140625 40.769531 309.21875 41.566406 309.21875 42.375 Z M 309.21875 42.375 " fill-opacity="1" fill-rule="nonzero"/><path fill="#a8d3d8" d="M 298.882812 43.949219 L 295 43.949219 C 292.855469 43.949219 291.113281 42.210938 291.113281 40.070312 L 291.113281 3.882812 C 291.113281 1.738281 292.855469 0 295 0 L 298.882812 0 C 301.027344 0 302.765625 1.738281 302.765625 3.882812 L 302.765625 40.070312 C 302.765625 42.214844 301.027344 43.949219 298.882812 43.949219 Z M 298.882812 43.949219 " fill-opacity="1" fill-rule="nonzero"/><path fill="#af66da" d="M 193.113281 278.535156 C 193.113281 280.007812 193.074219 281.476562 193.003906 282.945312 C 192.929688 284.414062 192.824219 285.882812 192.679688 287.34375 C 192.535156 288.808594 192.355469 290.269531 192.136719 291.722656 C 191.921875 293.179688 191.671875 294.625 191.382812 296.070312 C 191.097656 297.511719 190.773438 298.945312 190.417969 300.371094 C 190.058594 301.800781 189.667969 303.214844 189.238281 304.625 C 188.8125 306.03125 188.351562 307.425781 187.855469 308.8125 C 187.359375 310.199219 186.832031 311.570312 186.265625 312.929688 C 185.703125 314.285156 185.109375 315.632812 184.480469 316.960938 C 183.851562 318.289062 183.1875 319.601562 182.496094 320.902344 C 181.800781 322.199219 181.074219 323.476562 180.320312 324.738281 C 179.5625 326 178.777344 327.242188 177.957031 328.464844 C 177.140625 329.6875 176.292969 330.890625 175.417969 332.070312 C 174.539062 333.253906 173.636719 334.410156 172.703125 335.550781 C 171.769531 336.6875 170.808594 337.800781 169.820312 338.890625 C 168.832031 339.980469 167.816406 341.042969 166.777344 342.082031 C 165.734375 343.125 164.671875 344.136719 163.578125 345.125 C 162.488281 346.113281 161.375 347.074219 160.238281 348.007812 C 159.101562 348.9375 157.941406 349.84375 156.757812 350.71875 C 155.578125 351.597656 154.375 352.441406 153.152344 353.261719 C 151.925781 354.078125 150.683594 354.863281 149.421875 355.621094 C 148.160156 356.375 146.878906 357.101562 145.582031 357.792969 C 144.285156 358.488281 142.96875 359.148438 141.640625 359.777344 C 140.308594 360.40625 138.964844 361 137.605469 361.566406 C 136.246094 362.128906 134.875 362.65625 133.488281 363.152344 C 132.101562 363.648438 130.707031 364.109375 129.296875 364.535156 C 127.890625 364.960938 126.472656 365.355469 125.042969 365.710938 C 123.617188 366.070312 122.179688 366.390625 120.738281 366.679688 C 119.292969 366.964844 117.84375 367.21875 116.390625 367.433594 C 114.933594 367.648438 113.472656 367.828125 112.007812 367.972656 C 110.546875 368.117188 109.078125 368.226562 107.609375 368.296875 C 106.136719 368.371094 104.667969 368.40625 103.195312 368.40625 C 101.722656 368.40625 100.253906 368.371094 98.785156 368.296875 C 97.3125 368.226562 95.847656 368.117188 94.382812 367.972656 C 92.917969 367.828125 91.457031 367.648438 90.003906 367.433594 C 88.546875 367.21875 87.097656 366.964844 85.65625 366.679688 C 84.210938 366.390625 82.777344 366.070312 81.347656 365.710938 C 79.921875 365.355469 78.503906 364.960938 77.09375 364.535156 C 75.6875 364.109375 74.289062 363.648438 72.90625 363.152344 C 71.519531 362.65625 70.144531 362.128906 68.785156 361.566406 C 67.425781 361 66.082031 360.40625 64.753906 359.777344 C 63.421875 359.148438 62.109375 358.488281 60.808594 357.792969 C 59.511719 357.101562 58.230469 356.375 56.96875 355.621094 C 55.707031 354.863281 54.464844 354.078125 53.242188 353.261719 C 52.019531 352.441406 50.816406 351.597656 49.632812 350.71875 C 48.453125 349.84375 47.292969 348.9375 46.152344 348.007812 C 45.015625 347.074219 43.902344 346.113281 42.8125 345.125 C 41.722656 344.136719 40.65625 343.125 39.617188 342.082031 C 38.574219 341.042969 37.5625 339.980469 36.574219 338.890625 C 35.585938 337.800781 34.625 336.6875 33.691406 335.550781 C 32.757812 334.410156 31.851562 333.253906 30.976562 332.070312 C 30.097656 330.890625 29.25 329.6875 28.433594 328.464844 C 27.617188 327.242188 26.828125 326 26.074219 324.738281 C 25.316406 323.476562 24.589844 322.199219 23.898438 320.902344 C 23.203125 319.601562 22.542969 318.289062 21.914062 316.960938 C 21.285156 315.632812 20.6875 314.285156 20.125 312.929688 C 19.5625 311.570312 19.03125 310.199219 18.535156 308.8125 C 18.039062 307.425781 17.578125 306.03125 17.152344 304.625 C 16.726562 303.214844 16.332031 301.800781 15.976562 300.371094 C 15.617188 298.945312 15.296875 297.511719 15.007812 296.070312 C 14.722656 294.625 14.46875 293.179688 14.253906 291.722656 C 14.039062 290.269531 13.859375 288.808594 13.714844 287.34375 C 13.570312 285.882812 13.460938 284.414062 13.390625 282.945312 C 13.316406 281.476562 13.28125 280.007812 13.28125 278.535156 C 13.28125 277.066406 13.316406 275.597656 13.390625 274.125 C 13.460938 272.65625 13.570312 271.191406 13.714844 269.726562 C 13.859375 268.265625 14.039062 266.804688 14.253906 265.351562 C 14.46875 263.894531 14.722656 262.445312 15.007812 261.003906 C 15.296875 259.5625 15.617188 258.125 15.976562 256.699219 C 16.332031 255.273438 16.726562 253.855469 17.152344 252.449219 C 17.578125 251.042969 18.039062 249.644531 18.535156 248.261719 C 19.03125 246.875 19.5625 245.503906 20.125 244.144531 C 20.6875 242.785156 21.285156 241.441406 21.914062 240.113281 C 22.542969 238.78125 23.203125 237.46875 23.898438 236.171875 C 24.589844 234.875 25.316406 233.597656 26.074219 232.335938 C 26.828125 231.074219 27.617188 229.832031 28.433594 228.609375 C 29.25 227.386719 30.097656 226.183594 30.976562 225 C 31.851562 223.820312 32.757812 222.660156 33.691406 221.523438 C 34.625 220.386719 35.585938 219.273438 36.574219 218.183594 C 37.5625 217.09375 38.574219 216.03125 39.617188 214.988281 C 40.65625 213.949219 41.722656 212.933594 42.8125 211.949219 C 43.902344 210.960938 45.015625 210 46.152344 209.066406 C 47.292969 208.132812 48.453125 207.230469 49.632812 206.351562 C 50.816406 205.476562 52.019531 204.628906 53.242188 203.8125 C 54.464844 202.996094 55.707031 202.210938 56.96875 201.453125 C 58.230469 200.695312 59.511719 199.972656 60.808594 199.277344 C 62.109375 198.585938 63.421875 197.925781 64.753906 197.296875 C 66.082031 196.667969 67.425781 196.070312 68.785156 195.507812 C 70.144531 194.945312 71.519531 194.417969 72.90625 193.921875 C 74.289062 193.425781 75.6875 192.964844 77.09375 192.535156 C 78.503906 192.109375 79.921875 191.71875 81.347656 191.359375 C 82.777344 191.003906 84.210938 190.679688 85.65625 190.394531 C 87.097656 190.105469 88.546875 189.855469 90.003906 189.640625 C 91.457031 189.425781 92.917969 189.246094 94.382812 189.101562 C 95.847656 188.957031 97.3125 188.847656 98.785156 188.777344 C 100.253906 188.703125 101.722656 188.667969 103.195312 188.667969 C 104.667969 188.667969 106.136719 188.703125 107.609375 188.777344 C 109.078125 188.847656 110.546875 188.957031 112.007812 189.101562 C 113.472656 189.246094 114.933594 189.425781 116.390625 189.640625 C 117.84375 189.855469 119.292969 190.105469 120.738281 190.394531 C 122.179688 190.679688 123.617188 191.003906 125.042969 191.359375 C 126.472656 191.71875 127.890625 192.109375 129.296875 192.535156 C 130.707031 192.964844 132.101562 193.425781 133.488281 193.921875 C 134.875 194.417969 136.246094 194.945312 137.605469 195.507812 C 138.964844 196.070312 140.308594 196.667969 141.640625 197.296875 C 142.96875 197.925781 144.285156 198.585938 145.582031 199.277344 C 146.878906 199.972656 148.160156 200.695312 149.421875 201.453125 C 150.683594 202.210938 151.925781 202.996094 153.152344 203.8125 C 154.375 204.628906 155.578125 205.476562 156.757812 206.351562 C 157.941406 207.230469 159.101562 208.132812 160.238281 209.066406 C 161.375 210 162.488281 210.960938 163.578125 211.949219 C 164.671875 212.933594 165.734375 213.949219 166.777344 214.988281 C 167.816406 216.03125 168.832031 217.09375 169.820312 218.183594 C 170.808594 219.273438 171.769531 220.386719 172.703125 221.523438 C 173.636719 222.660156 174.539062 223.820312 175.417969 225 C 176.292969 226.183594 177.140625 227.386719 177.957031 228.609375 C 178.777344 229.832031 179.5625 231.074219 180.320312 232.335938 C 181.074219 233.597656 181.800781 234.875 182.496094 236.171875 C 183.1875 237.46875 183.851562 238.78125 184.480469 240.113281 C 185.109375 241.441406 185.703125 242.785156 186.265625 244.144531 C 186.832031 245.503906 187.359375 246.875 187.855469 248.261719 C 188.351562 249.644531 188.8125 251.042969 189.238281 252.449219 C 189.667969 253.855469 190.058594 255.273438 190.417969 256.699219 C 190.773438 258.125 191.097656 259.5625 191.382812 261.003906 C 191.671875 262.445312 191.921875 263.894531 192.136719 265.351562 C 192.355469 266.804688 192.535156 268.265625 192.679688 269.726562 C 192.824219 271.191406 192.929688 272.65625 193.003906 274.125 C 193.074219 275.597656 193.113281 277.066406 193.113281 278.535156 Z M 193.113281 278.535156 " fill-opacity="1" fill-rule="nonzero"/><path fill="#9857bd" d="M 52.886719 278.535156 C 52.886719 235.703125 82.867188 199.875 123 190.859375 C 116.628906 189.425781 110 188.667969 103.195312 188.667969 C 53.539062 188.667969 13.28125 228.902344 13.28125 278.535156 C 13.28125 328.167969 53.539062 368.40625 103.195312 368.40625 C 110 368.40625 116.625 367.644531 123 366.214844 C 82.867188 357.199219 52.886719 321.367188 52.886719 278.535156 Z M 52.886719 278.535156 " fill-opacity="1" fill-rule="nonzero"/><path fill="#ffffff" d="M 139.753906 284.359375 L 103.195312 284.359375 C 99.980469 284.359375 97.371094 281.753906 97.371094 278.535156 L 97.371094 220.289062 C 97.371094 219.003906 98.414062 217.960938 99.699219 217.960938 L 106.691406 217.960938 C 107.980469 217.960938 109.023438 219.003906 109.023438 220.289062 L 109.023438 272.714844 L 139.753906 272.714844 C 141.039062 272.714844 142.082031 273.757812 142.082031 275.042969 L 142.082031 282.03125 C 142.082031 283.316406 141.039062 284.359375 139.753906 284.359375 Z M 139.753906 284.359375 " fill-opacity="1" fill-rule="nonzero"/><path fill="#ffffff" d="M 106.691406 209.402344 L 99.699219 209.402344 C 98.414062 209.402344 97.371094 208.363281 97.371094 207.074219 L 97.371094 199.734375 C 97.371094 198.449219 98.414062 197.40625 99.699219 197.40625 L 106.691406 197.40625 C 107.980469 197.40625 109.023438 198.449219 109.023438 199.734375 L 109.023438 207.074219 C 109.023438 208.363281 107.980469 209.402344 106.691406 209.402344 Z M 106.691406 209.402344 " fill-opacity="1" fill-rule="nonzero"/><path fill="#ffffff" d="M 106.691406 359.667969 L 99.699219 359.667969 C 98.414062 359.667969 97.371094 358.625 97.371094 357.335938 L 97.371094 349.996094 C 97.371094 348.710938 98.414062 347.667969 99.699219 347.667969 L 106.691406 347.667969 C 107.980469 347.667969 109.023438 348.710938 109.023438 349.996094 L 109.023438 357.335938 C 109.023438 358.625 107.980469 359.667969 106.691406 359.667969 Z M 106.691406 359.667969 " fill-opacity="1" fill-rule="nonzero"/><path fill="#ffffff" d="M 31.699219 284.359375 L 24.355469 284.359375 C 23.066406 284.359375 22.023438 283.316406 22.023438 282.03125 L 22.023438 275.042969 C 22.023438 273.757812 23.066406 272.714844 24.355469 272.714844 L 31.699219 272.714844 C 32.984375 272.714844 34.027344 273.757812 34.027344 275.042969 L 34.027344 282.03125 C 34.027344 283.316406 32.984375 284.359375 31.699219 284.359375 Z M 31.699219 284.359375 " fill-opacity="1" fill-rule="nonzero"/><path fill="#ffffff" d="M 182.039062 284.359375 L 174.695312 284.359375 C 173.40625 284.359375 172.363281 283.316406 172.363281 282.03125 L 172.363281 275.042969 C 172.363281 273.757812 173.40625 272.714844 174.695312 272.714844 L 182.039062 272.714844 C 183.324219 272.714844 184.367188 273.757812 184.367188 275.042969 L 184.367188 282.03125 C 184.367188 283.316406 183.324219 284.359375 182.039062 284.359375 Z M 182.039062 284.359375 " fill-opacity="1" fill-rule="nonzero"/><path fill="#ffffff" d="M 164.84375 246.996094 L 161.351562 240.945312 C 160.707031 239.832031 161.089844 238.40625 162.203125 237.761719 L 168.5625 234.09375 C 169.675781 233.449219 171.101562 233.832031 171.746094 234.945312 L 175.242188 240.996094 C 175.882812 242.109375 175.503906 243.535156 174.386719 244.179688 L 168.027344 247.847656 C 166.914062 248.492188 165.488281 248.109375 164.84375 246.996094 Z M 164.84375 246.996094 " fill-opacity="1" fill-rule="nonzero"/><path fill="#ffffff" d="M 34.648438 322.128906 L 31.152344 316.078125 C 30.507812 314.960938 30.890625 313.539062 32.003906 312.894531 L 38.363281 309.226562 C 39.480469 308.582031 40.90625 308.964844 41.546875 310.078125 L 45.042969 316.128906 C 45.6875 317.242188 45.304688 318.667969 44.191406 319.308594 L 37.832031 322.980469 C 36.714844 323.625 35.289062 323.242188 34.648438 322.128906 Z M 34.648438 322.128906 " fill-opacity="1" fill-rule="nonzero"/><path fill="#ffffff" d="M 62.402344 219.558594 L 58.730469 213.203125 C 58.085938 212.089844 58.46875 210.664062 59.582031 210.023438 L 65.636719 206.527344 C 66.75 205.886719 68.175781 206.265625 68.820312 207.382812 L 72.492188 213.738281 C 73.136719 214.851562 72.753906 216.277344 71.640625 216.917969 L 65.585938 220.414062 C 64.46875 221.054688 63.046875 220.675781 62.402344 219.558594 Z M 62.402344 219.558594 " fill-opacity="1" fill-rule="nonzero"/><path fill="#ffffff" d="M 137.570312 349.691406 L 133.898438 343.335938 C 133.257812 342.21875 133.636719 340.796875 134.753906 340.152344 L 140.808594 336.660156 C 141.921875 336.015625 143.347656 336.398438 143.992188 337.511719 L 147.664062 343.867188 C 148.304688 344.984375 147.925781 346.40625 146.808594 347.050781 L 140.753906 350.542969 C 139.640625 351.1875 138.214844 350.804688 137.570312 349.691406 Z M 137.570312 349.691406 " fill-opacity="1" fill-rule="nonzero"/><path fill="#ffffff" d="M 38.363281 247.847656 L 32.003906 244.179688 C 30.890625 243.535156 30.507812 242.109375 31.152344 240.996094 L 34.644531 234.945312 C 35.289062 233.832031 36.714844 233.449219 37.828125 234.09375 L 44.191406 237.761719 C 45.304688 238.40625 45.6875 239.832031 45.042969 240.945312 L 41.546875 246.996094 C 40.902344 248.109375 39.480469 248.492188 38.363281 247.847656 Z M 38.363281 247.847656 " fill-opacity="1" fill-rule="nonzero"/><path fill="#ffffff" d="M 168.5625 322.980469 L 162.203125 319.308594 C 161.089844 318.667969 160.707031 317.242188 161.351562 316.128906 L 164.84375 310.078125 C 165.488281 308.964844 166.914062 308.582031 168.027344 309.226562 L 174.386719 312.894531 C 175.503906 313.539062 175.886719 314.960938 175.242188 316.078125 L 171.746094 322.128906 C 171.101562 323.242188 169.675781 323.625 168.5625 322.980469 Z M 168.5625 322.980469 " fill-opacity="1" fill-rule="nonzero"/><path fill="#ffffff" d="M 65.636719 350.542969 L 59.582031 347.050781 C 58.46875 346.40625 58.085938 344.984375 58.730469 343.871094 L 62.402344 337.511719 C 63.046875 336.398438 64.46875 336.015625 65.585938 336.660156 L 71.640625 340.152344 C 72.753906 340.796875 73.136719 342.222656 72.492188 343.335938 L 68.820312 349.691406 C 68.175781 350.804688 66.75 351.1875 65.636719 350.542969 Z M 65.636719 350.542969 " fill-opacity="1" fill-rule="nonzero"/><path fill="#ffffff" d="M 140.808594 220.414062 L 134.753906 216.917969 C 133.636719 216.277344 133.257812 214.851562 133.898438 213.738281 L 137.570312 207.382812 C 138.214844 206.265625 139.640625 205.886719 140.753906 206.527344 L 146.808594 210.023438 C 147.925781 210.664062 148.304688 212.089844 147.664062 213.203125 L 143.992188 219.5625 C 143.347656 220.675781 141.921875 221.054688 140.808594 220.414062 Z M 140.808594 220.414062 " fill-opacity="1" fill-rule="nonzero"/><path fill="#8ebac5" d="M 160.078125 138.96875 L 160.078125 109.46875 C 160.078125 106.039062 162.863281 103.257812 166.292969 103.257812 L 147.261719 103.257812 C 143.832031 103.257812 141.050781 106.039062 141.050781 109.46875 L 141.050781 138.96875 C 141.050781 142.398438 143.832031 145.179688 147.261719 145.179688 L 166.292969 145.179688 C 162.863281 145.179688 160.078125 142.398438 160.078125 138.96875 Z M 160.078125 138.96875 " fill-opacity="1" fill-rule="nonzero"/><path fill="#8ebac5" d="M 219.890625 138.96875 L 219.890625 109.46875 C 219.890625 106.039062 222.671875 103.257812 226.105469 103.257812 L 207.074219 103.257812 C 203.640625 103.257812 200.859375 106.039062 200.859375 109.46875 L 200.859375 138.96875 C 200.859375 142.398438 203.640625 145.179688 207.074219 145.179688 L 226.105469 145.179688 C 222.671875 145.179688 219.890625 142.398438 219.890625 138.96875 Z M 219.890625 138.96875 " fill-opacity="1" fill-rule="nonzero"/><path fill="#8ebac5" d="M 279.703125 138.96875 L 279.703125 109.46875 C 279.703125 106.039062 282.484375 103.257812 285.917969 103.257812 L 266.886719 103.257812 C 263.453125 103.257812 260.671875 106.039062 260.671875 109.46875 L 260.671875 138.96875 C 260.671875 142.398438 263.453125 145.179688 266.886719 145.179688 L 285.917969 145.179688 C 282.484375 145.179688 279.703125 142.398438 279.703125 138.96875 Z M 279.703125 138.96875 " fill-opacity="1" fill-rule="nonzero"/><path fill="#8ebac5" d="M 219.890625 197.972656 L 219.890625 168.472656 C 219.890625 165.042969 222.671875 162.261719 226.105469 162.261719 L 207.074219 162.261719 C 203.640625 162.261719 200.859375 165.042969 200.859375 168.472656 L 200.859375 197.972656 C 200.859375 201.402344 203.640625 204.183594 207.074219 204.183594 L 226.105469 204.183594 C 222.671875 204.183594 219.890625 201.402344 219.890625 197.972656 Z M 219.890625 197.972656 " fill-opacity="1" fill-rule="nonzero"/><path fill="#8ebac5" d="M 279.703125 197.972656 L 279.703125 168.472656 C 279.703125 165.042969 282.484375 162.261719 285.917969 162.261719 L 266.886719 162.261719 C 263.453125 162.261719 260.671875 165.042969 260.671875 168.472656 L 260.671875 197.972656 C 260.671875 201.402344 263.453125 204.183594 266.886719 204.183594 L 285.917969 204.183594 C 282.484375 204.183594 279.703125 201.402344 279.703125 197.972656 Z M 279.703125 197.972656 " fill-opacity="1" fill-rule="nonzero"/></svg>